# Blender 3.3.0
# www.blender.org
mtllib benchmark.mtl
o Plane
v 20.000000 0.000000 20.000000
v -30.000000 0.000000 20.000000
v 20.000000 0.000000 -20.000000
v -30.000000 0.000000 -20.000000
v 20.000000 0.000000 0.000000
v -10.000000 0.000000 20.000000
v -30.000000 0.000000 0.000000
v -10.000000 0.000000 -20.000000
v -10.000000 0.000000 0.000000
v 20.000000 0.000000 10.000000
v -20.000000 0.000000 20.000000
v -30.000000 0.000000 -10.000000
v 10.000000 0.000000 -20.000000
v 20.000000 0.000000 -10.000000
v 10.000000 0.000000 20.000000
v -30.000000 0.000000 10.000000
v -20.000000 0.000000 -20.000000
v -10.000000 0.000000 -10.000000
v -10.000000 0.000000 10.000000
v 10.000000 0.000000 0.000000
v -20.000000 0.000000 0.000000
v -20.000000 0.000000 10.000000
v 10.000000 0.000000 10.000000
v 10.000000 0.000000 -10.000000
v -20.000000 0.000000 -10.000000
v 30.000000 0.000000 20.000000
v 30.000000 0.000000 -20.000000
v 30.000000 0.000000 0.000000
v 30.000000 0.000000 10.000000
v 30.000000 0.000000 -10.000000
v 20.000000 -15.000000 10.000000
v 20.000000 -15.000000 20.000000
v -20.000000 -15.000000 20.000000
v -30.000000 -15.000000 20.000000
v -30.000000 -15.000000 -10.000000
v -30.000000 -15.000000 -20.000000
v 20.000000 -15.000000 -20.000000
v 20.000000 -15.000000 -10.000000
v -30.000000 -15.000000 10.000000
v -20.000000 -15.000000 -20.000000
v -20.000000 -15.000000 10.000000
v -20.000000 -15.000000 -10.000000
v 30.000000 -15.000000 10.000000
v 30.000000 -15.000000 20.000000
v 30.000000 -15.000000 -20.000000
v 30.000000 -15.000000 -10.000000
v 8.684462 -27.754576 4.342231
v 8.684462 -27.754576 8.684462
v -8.684462 -27.754576 8.684462
v -13.026690 -27.754576 8.684462
v -13.026690 -27.754576 -4.342231
v -13.026690 -27.754576 -8.684462
v 8.684462 -27.754576 -8.684462
v 8.684462 -27.754576 -4.342231
v -13.026690 -27.754576 4.342231
v -8.684462 -27.754576 -8.684462
v -8.684462 -27.754576 4.342231
v -8.684462 -27.754576 -4.342231
v 13.026690 -27.754576 4.342231
v 13.026690 -27.754576 8.684462
v 13.026690 -27.754576 -8.684462
v 13.026690 -27.754576 -4.342231
v 0.286307 -40.386833 0.143154
v 0.286307 -40.386833 0.286307
v -0.286307 -40.386833 0.286307
v -0.429461 -40.386833 0.286307
v -0.429461 -40.386833 -0.143154
v -0.429461 -40.386833 -0.286307
v 0.286307 -40.386833 -0.286307
v 0.286307 -40.386833 -0.143154
v -0.429461 -40.386833 0.143154
v -0.286307 -40.386833 -0.286307
v -0.286307 -40.386833 0.143154
v -0.286307 -40.386833 -0.143154
v 0.429461 -40.386833 0.143154
v 0.429461 -40.386833 0.286307
v 0.429461 -40.386833 -0.286307
v 0.429461 -40.386833 -0.143154
vn 1.0000 -0.0000 -0.0000
vn -0.0000 -1.0000 -0.0000
vn -0.0000 -0.0000 1.0000
vn -1.0000 -0.0000 -0.0000
vn 0.7480 0.6636 -0.0000
vn -0.0000 0.4055 -0.9141
vn -0.0000 -0.6636 -0.7480
vn -0.0000 0.4055 0.9141
vn -0.0000 -0.0000 -1.0000
vn -0.7081 -0.7061 -0.0000
vn 0.7081 -0.7061 -0.0000
vn -0.8328 0.5536 -0.0000
vn -0.0000 -0.6636 0.7480
vn -0.7480 0.6636 -0.0000
vn -0.6007 -0.7994 -0.0000
vn 0.6007 -0.7994 -0.0000
vn -0.0000 0.3154 0.9489
vn -0.0000 -0.5536 -0.8328
vn -0.0000 0.3154 -0.9489
vn 0.8328 0.5536 -0.0000
vn -0.0000 -0.5536 0.8328
vt 0.666667 0.166667
vt 0.246065 0.452753
vt 0.696394 0.043203
vt 0.839179 0.789160
vt 0.760098 0.827468
vt 0.839179 0.370531
vt 0.000000 0.166667
vt 0.357398 0.878997
vt 0.617313 0.413734
vt 0.733833 0.827468
vt 0.333333 0.166667
vt 0.666667 0.666667
vt 0.333333 1.000000
vt 0.000000 0.666667
vt 0.333333 0.666667
vt 0.276804 0.414095
vt 0.500000 0.166667
vt 0.334000 0.472440
vt 0.839179 0.784265
vt 0.023398 0.878997
vt 0.666667 0.833333
vt 0.643721 0.827468
vt 0.166667 1.000000
vt 0.057003 0.452753
vt 0.000000 0.333333
vt 0.445334 0.859309
vt 0.166667 0.166667
vt 0.415206 0.038658
vt 0.666667 0.333333
vt 0.472209 0.000000
vt 0.500000 1.000000
vt 0.929292 0.789160
vt 0.134731 0.452753
vt 0.000000 0.833333
vt 0.696394 0.456937
vt 0.166667 0.666667
vt 0.500000 0.666667
vt 0.333333 0.333333
vt 0.333333 0.833333
vt 0.111333 0.859309
vt 0.500000 0.833333
vt 0.553608 0.038658
vt 0.500000 0.333333
vt 0.166667 0.333333
vt 0.138402 0.414095
vt 0.166667 0.833333
vt 0.222667 0.472440
vt 0.617313 0.000000
vt 0.823946 0.827468
vt 0.553608 0.827468
vt 0.760098 0.413734
vt 0.333333 0.000000
vt 0.733833 0.827468
vt 0.500000 0.000000
vt 0.195405 0.452753
vt 0.333807 0.000000
vt 0.166667 0.000000
vt 0.643721 0.827468
vt 0.219801 0.294068
vt 0.310603 0.576949
vt 0.222667 0.557262
vt 0.632689 0.159811
vt 0.000000 0.774488
vt 0.775474 0.667657
vt 0.919635 0.395014
vt 0.839179 0.896256
vt 0.696393 0.710860
vt 0.643721 0.934564
vt 0.000000 0.332726
vt 0.445334 0.493338
vt 0.733833 0.934564
vt 0.553608 0.530342
vt 0.525790 0.452753
vt 0.775474 0.253923
vt 0.334001 0.774488
vt 0.358203 0.158685
vt 0.421936 0.754800
vt 0.929292 0.896256
vt 0.415206 0.120027
vt 0.839179 0.354429
vt 0.632689 0.573545
vt 0.111333 0.557262
vt 0.087936 0.754800
vt 0.496605 0.158685
vt 0.199269 0.576949
vt 0.081399 0.294068
vt 0.733833 0.934564
vt 0.138402 0.332726
vt 0.919590 0.435688
vt 0.553608 0.116608
vt 0.823946 0.934564
vt 1.000000 0.395014
vt 0.919590 0.789160
vt 0.553608 0.934564
vt 0.696393 0.297126
vt 0.643721 0.934564
vt 0.276804 0.120027
vt 0.839179 0.748485
vt 0.259427 0.139817
vt 0.326868 0.737661
vt 0.288684 0.729112
vt 0.676973 0.291434
vt 0.066017 0.602637
vt 0.819758 0.536034
vt 0.914544 0.178703
vt 0.785420 0.554794
vt 0.085679 0.156603
vt 0.485763 0.686686
vt 0.642635 0.686408
vt 0.520699 0.669063
vt 0.400017 0.602637
vt 0.819758 0.122300
vt 0.438201 0.594088
vt 0.397829 0.312936
vt 0.500885 0.296150
vt 0.879608 0.161080
vt 0.177350 0.729112
vt 0.676973 0.705168
vt 0.104201 0.594088
vt 0.536231 0.312936
vt 0.215534 0.737661
vt 0.121025 0.139817
vt 0.960234 0.628992
vt 0.224081 0.156603
vt 0.642635 0.272674
vt 0.995150 0.611330
vt 0.914740 0.572844
vt 0.785420 0.141060
vt 0.362483 0.296150
vt 0.879824 0.555182
vt 0.276804 0.000000
vt 0.526763 0.454043
vt 0.334000 0.878997
vt 0.526763 0.452753
vt 0.696394 0.413734
vt 0.332742 0.878715
vt 0.919635 0.000581
vt 0.839179 0.413734
vt 0.110075 0.453034
vt 0.919196 0.001450
vt 0.838047 0.414353
vt 0.524200 0.846897
vt 0.137237 0.000553
vt 0.695262 0.826850
vt 0.525351 0.846316
vt 0.839179 0.000000
vt 0.444075 0.453034
vt 0.526763 0.455333
vt 0.445334 0.452753
vt 0.526763 0.454043
vt 0.415206 0.452753
vt 0.918045 0.000869
vt 0.552443 0.452199
vt 0.525790 0.847185
vt 0.696394 0.827468
vt 0.221408 0.878715
vt 0.111333 0.452753
vt 0.918483 0.000000
vt 0.553608 0.452753
vt 0.524638 0.847766
vt 0.138402 0.000000
vt 0.222667 0.878997
vt 0.998849 0.789160
vt 0.525790 0.454043
vt 0.275639 0.000553
vt 1.000000 0.788578
vt 0.525790 0.452753
vt 0.695262 0.413116
vt 0.919590 0.395596
vt 0.525790 0.455333
vt 0.838047 0.000618
vt 0.918438 0.395014
vt 0.525790 0.454043
vt 0.414041 0.452199
s 0
usemtl Material.001
f 18/36/2 13/25/2 24/44/2
f 19/37/2 20/38/2 23/43/2
f 16/31/2 21/39/2 22/41/2
f 22/41/2 9/15/2 19/37/2
f 11/21/2 19/37/2 6/12/2
f 23/43/2 5/11/2 10/17/2
f 15/29/2 10/17/2 1/1/2
f 6/12/2 23/43/2 15/29/2
f 24/44/2 3/7/2 14/27/2
f 20/38/2 14/27/2 5/11/2
f 9/15/2 24/44/2 20/38/2
f 25/46/2 8/14/2 18/36/2
f 21/39/2 18/36/2 9/15/2
f 7/13/2 25/46/2 21/39/2
f 14/27/2 28/52/2 5/11/2
f 5/11/2 29/54/2 10/17/2
f 18/36/2 8/14/2 13/25/2
f 19/37/2 9/15/2 20/38/2
f 16/31/2 7/13/2 21/39/2
f 22/41/2 21/39/2 9/15/2
f 11/21/2 22/41/2 19/37/2
f 23/43/2 20/38/2 5/11/2
f 15/29/2 23/43/2 10/17/2
f 6/12/2 19/37/2 23/43/2
f 24/44/2 13/25/2 3/7/2
f 20/38/2 24/44/2 14/27/2
f 9/15/2 18/36/2 24/44/2
f 25/46/2 17/34/2 8/14/2
f 21/39/2 25/46/2 18/36/2
f 7/13/2 12/23/2 25/46/2
f 14/27/2 30/57/2 28/52/2
f 5/11/2 28/52/2 29/54/2
usemtl Material.002
f 11/20/1 41/83/1 22/40/1
f 1/3/3 44/90/3 26/48/3
f 12/24/3 42/86/3 25/45/3
f 4/10/4 35/68/4 12/22/4
f 41/83/5 49/103/5 57/119/5
f 31/59/6 59/124/6 47/99/6
f 40/81/7 52/109/7 36/72/7
f 38/76/8 62/129/8 46/97/8
f 26/49/1 43/87/1 29/53/1
f 16/32/4 34/66/4 2/4/4
f 27/51/9 37/74/9 3/6/9
f 17/35/9 36/72/9 4/9/9
f 22/42/9 39/79/9 16/30/9
f 30/58/1 45/94/1 27/50/1
f 25/47/1 40/82/1 17/33/1
f 14/28/3 46/97/3 30/56/3
f 10/18/4 32/61/4 1/2/4
f 2/5/3 33/64/3 11/19/3
f 3/8/4 38/77/4 14/26/4
f 29/55/9 31/59/9 10/16/9
f 55/116/10 66/140/10 50/105/10
f 62/130/11 77/169/11 61/127/11
f 54/113/12 69/147/12 70/149/12
f 59/123/11 76/166/11 75/163/11
f 32/62/13 60/125/13 44/90/13
f 41/84/6 55/115/6 39/79/6
f 31/60/14 48/101/14 32/61/14
f 37/74/7 61/128/7 53/112/7
f 42/85/5 56/117/5 40/82/5
f 33/64/13 50/106/13 49/104/13
f 42/86/8 51/107/8 58/122/8
f 35/70/15 52/110/15 51/108/15
f 43/89/16 60/126/16 59/123/16
f 38/77/14 53/111/14 54/113/14
f 46/98/16 61/127/16 45/93/16
f 39/80/15 50/105/15 34/65/15
f 67/142/2 72/154/2 74/160/2
f 66/140/2 73/158/2 65/137/2
f 63/132/2 76/167/2 64/134/2
f 69/148/2 78/173/2 70/150/2
f 54/114/17 78/174/17 62/129/17
f 56/118/18 68/144/18 52/109/18
f 47/99/19 75/165/19 63/131/19
f 57/119/20 65/139/20 73/157/20
f 48/102/21 76/168/21 60/125/21
f 57/120/19 71/153/19 55/115/19
f 47/100/12 64/136/12 48/101/12
f 53/112/18 77/171/18 69/146/18
f 58/121/20 72/156/20 56/117/20
f 49/104/21 66/141/21 65/138/21
f 58/122/17 67/143/17 74/161/17
f 51/108/10 68/145/10 67/142/10
f 11/20/1 33/63/1 41/83/1
f 1/3/3 32/62/3 44/90/3
f 12/24/3 35/69/3 42/86/3
f 4/10/4 36/71/4 35/68/4
f 41/83/5 33/63/5 49/103/5
f 31/59/6 43/88/6 59/124/6
f 40/81/7 56/118/7 52/109/7
f 38/76/8 54/114/8 62/129/8
f 26/49/1 44/91/1 43/87/1
f 16/32/4 39/78/4 34/66/4
f 27/51/9 45/95/9 37/74/9
f 17/35/9 40/81/9 36/72/9
f 22/42/9 41/84/9 39/79/9
f 30/58/1 46/96/1 45/94/1
f 25/47/1 42/85/1 40/82/1
f 14/28/3 38/76/3 46/97/3
f 10/18/4 31/60/4 32/61/4
f 2/5/3 34/67/3 33/64/3
f 3/8/4 37/75/4 38/77/4
f 29/55/9 43/88/9 31/59/9
f 55/116/10 71/152/10 66/140/10
f 62/130/11 78/172/11 77/169/11
f 54/113/12 53/111/12 69/147/12
f 59/123/11 60/126/11 76/166/11
f 32/62/13 48/102/13 60/125/13
f 41/84/6 57/120/6 55/115/6
f 31/60/14 47/100/14 48/101/14
f 37/74/7 45/95/7 61/128/7
f 42/85/5 58/121/5 56/117/5
f 33/64/13 34/67/13 50/106/13
f 42/86/8 35/69/8 51/107/8
f 35/70/15 36/73/15 52/110/15
f 43/89/16 44/92/16 60/126/16
f 38/77/14 37/75/14 53/111/14
f 46/98/16 62/130/16 61/127/16
f 39/80/15 55/116/15 50/105/15
f 67/142/2 68/145/2 72/154/2
f 66/140/2 71/152/2 73/158/2
f 63/132/2 75/164/2 76/167/2
f 69/148/2 77/170/2 78/173/2
f 54/114/17 70/151/17 78/174/17
f 56/118/18 72/155/18 68/144/18
f 47/99/19 59/124/19 75/165/19
f 57/119/20 49/103/20 65/139/20
f 48/102/21 64/135/21 76/168/21
f 57/120/19 73/159/19 71/153/19
f 47/100/12 63/133/12 64/136/12
f 53/112/18 61/128/18 77/171/18
f 58/121/20 74/162/20 72/156/20
f 49/104/21 50/106/21 66/141/21
f 58/122/17 51/107/17 67/143/17
f 51/108/10 52/110/10 68/145/10
