# Blender 3.3.0
# www.blender.org
mtllib cube.mtl
o Cube
v 1.000000 1.000000 1.000000
v 1.000000 -1.000000 1.000000
v 1.000000 1.000000 -1.000000
v 1.000000 -1.000000 -1.000000
v -1.000000 1.000000 1.000000
v -1.000000 -1.000000 1.000000
v -1.000000 1.000000 -1.000000
v -1.000000 -1.000000 -1.000000
vn 1.0000 -0.0000 -0.0000
vn -0.0000 -0.0000 -1.0000
vn -1.0000 -0.0000 -0.0000
vn -0.0000 -0.0000 1.0000
vn -0.0000 1.0000 -0.0000
vn -0.0000 -1.0000 -0.0000
vt 0.000000 0.000000
vt 1.000000 0.000000
vt 1.000000 0.000000
vt 0.000000 1.000000
vt 1.000000 1.000000
vt 0.000000 0.000000
vt 1.000000 1.000000
vt 0.000000 1.000000
vt 1.000000 1.000000
vt 1.000000 0.000000
vt 1.000000 0.000000
vt 0.000000 0.000000
vt 1.000000 1.000000
vt 0.000000 1.000000
vt 1.000000 0.000000
vt 0.000000 1.000000
vt 0.000000 0.000000
vt 1.000000 1.000000
s 0
usemtl Material.003
f 2/3/1 3/8/1 1/1/1
f 4/10/2 7/16/2 3/6/2
f 8/18/3 5/12/3 7/15/3
f 6/13/4 1/1/4 5/11/4
f 7/16/5 1/2/5 3/7/5
f 4/10/6 6/14/6 8/17/6
f 2/3/1 4/9/1 3/8/1
f 4/10/2 8/18/2 7/16/2
f 8/18/3 6/14/3 5/12/3
f 6/13/4 2/4/4 1/1/4
f 7/16/5 5/12/5 1/2/5
f 4/10/6 2/5/6 6/14/6
