# Blender 3.3.0
# www.blender.org
mtllib axis.mtl
o Cube
v -2.631342 -8.376903 -17.673382
v 2.368656 -8.376903 -17.673382
v -2.631342 -8.376903 32.326618
v 2.368656 -8.376903 32.326618
v -2.631342 -3.376902 -17.673382
v 2.368657 -3.376902 -17.673382
v -2.631342 -3.376902 32.326618
v 2.368657 -3.376902 32.326618
v 2.368656 -8.376903 -24.416908
v 2.368657 -3.376902 -24.416908
v -2.631342 -8.376903 -24.416908
v -2.631342 -3.376902 -24.416908
v 2.368656 -5.876903 -17.673382
v -2.631342 -5.876903 32.326618
v 2.368656 -5.876903 32.326618
v -2.631342 -5.876903 -17.673382
v 2.368656 -5.876903 -24.416908
v -2.631342 -5.876903 -24.416908
v -2.631342 -3.376902 -22.262726
v 2.368657 -3.376902 -22.262726
v 2.368656 -8.376903 -22.262726
v -2.631342 -8.376903 -22.262726
v -2.631342 -5.876903 -22.262726
v 2.368656 -5.876903 -22.262726
v 7.368657 -0.876902 -24.416908
v 7.368657 1.623098 -24.416908
v 7.368657 -0.876902 -22.262726
v 7.368657 1.623098 -22.262726
v 7.368656 -13.376904 -24.416908
v 7.368656 -10.876903 -24.416908
v 7.368656 -10.876903 -22.262726
v 7.368656 -13.376904 -22.262726
v -7.631342 -10.876903 -24.416908
v -7.631342 -13.376903 -24.416908
v -7.631342 -13.376903 -22.262726
v -7.631342 -10.876903 -22.262726
v -7.631342 1.623098 -22.262726
v -7.631342 1.623098 -24.416908
v -7.631342 -0.876902 -24.416908
v -7.631342 -0.876902 -22.262726
v 2.368657 -3.376902 4.529595
v -2.631342 -8.376903 4.529595
v -2.631342 -3.376902 4.529595
v 2.368656 -8.376903 4.529595
v 2.368656 -5.876903 4.529595
v -2.631342 -5.876903 4.529595
v 2.368657 -3.376902 9.972857
v -2.631342 -8.376903 9.972857
v 2.368656 -5.876903 9.972857
v -2.631342 -5.876903 9.972857
v -2.631342 -3.376902 9.972857
v 2.368656 -8.376903 9.972857
v -2.631342 21.623096 9.972857
v -2.631342 21.623096 4.529595
v 2.368657 21.623096 4.529595
v 2.368657 21.623096 9.972857
v 2.368655 -33.376904 9.972857
v 2.368655 -33.376904 4.529595
v -2.631342 -33.376904 4.529595
v -2.631342 -33.376904 9.972857
v -2.631342 -3.376902 8.612042
v -2.631342 -3.376902 7.251226
v -2.631342 -3.376902 5.890410
v 2.368656 -8.376903 8.612042
v 2.368656 -8.376903 7.251226
v 2.368656 -8.376903 5.890410
v 2.368657 -3.376902 5.890410
v 2.368657 -3.376902 7.251226
v 2.368657 -3.376902 8.612041
v -2.631342 -8.376903 5.890410
v -2.631342 -8.376903 7.251226
v -2.631342 -8.376903 8.612041
v 2.368656 -5.876903 5.890410
v 2.368656 -5.876903 7.251226
v 2.368656 -5.876903 8.612041
v -2.631342 -5.876903 5.890410
v -2.631342 -5.876903 7.251226
v -2.631342 -5.876903 8.612041
v -2.631342 21.623096 8.612042
v -2.631342 21.623096 7.251226
v -2.631342 21.623096 5.890410
v 2.368657 21.623096 5.890410
v 2.368657 21.623096 7.251226
v 2.368657 21.623096 8.612041
v 2.368655 -33.376904 8.612042
v 2.368655 -33.376904 7.251226
v 2.368655 -33.376904 5.890410
v -2.631342 -33.376904 5.890410
v -2.631342 -33.376904 7.251226
v -2.631342 -33.376904 8.612041
v 2.368657 19.963867 9.972857
v 2.368657 19.963867 4.529595
v -2.631342 19.963865 4.529595
v -2.631342 19.963865 9.972857
v -2.631342 19.963865 8.612042
v -2.631342 19.963865 7.251226
v -2.631342 19.963865 5.890410
v 2.368657 19.963867 5.890410
v 2.368657 19.963867 7.251226
v 2.368657 19.963867 8.612041
v 7.368657 21.623096 13.612041
v 7.368657 21.623096 14.972857
v 7.368657 19.963867 14.972857
v 7.368657 21.623096 12.251226
v 7.368657 19.963867 12.251226
v 7.368657 19.963867 13.612041
v 7.368657 21.623096 -0.470405
v 7.368657 21.623096 0.890411
v 7.368657 21.623096 2.251227
v 7.368657 19.963867 0.890411
v 7.368657 19.963867 2.251227
v 7.368657 19.963867 -0.470405
v -7.631340 21.623096 8.612042
v -7.631340 21.623096 7.251226
v -7.631340 21.623096 5.890410
v -7.631342 19.963865 8.612042
v -7.631342 19.963865 7.251226
v -7.631342 19.963865 5.890410
vn -1.0000 -0.0000 -0.0000
vn -0.0000 -0.0000 1.0000
vn -0.0000 1.0000 -0.0000
vn 1.0000 -0.0000 -0.0000
vn -0.0000 -1.0000 -0.0000
vn -0.0000 -0.0000 -1.0000
vn 0.7071 -0.7071 -0.0000
vn 0.7071 0.7071 -0.0000
vn -0.7071 0.7071 -0.0000
vn -0.7071 -0.7071 -0.0000
vn 0.7071 -0.0000 0.7071
vn 0.7071 -0.0000 -0.7071
vn -0.7071 -0.0000 0.7071
vn -0.7071 -0.0000 -0.7071
vt 0.625000 0.500000
vt 0.375000 0.500000
vt 0.625000 0.750000
vt 0.375000 0.750000
vt 0.625000 0.250000
vt 0.875000 0.500000
vt 0.375000 0.250000
vt 0.125000 0.500000
vt 0.875000 0.750000
vt 0.625000 1.000000
vt 0.625000 0.000000
vt 0.375000 0.000000
vt 0.375000 1.000000
vt 0.125000 0.750000
vt 0.375000 0.500000
vt 0.375000 0.250000
vt 0.625000 0.500000
vt 0.625000 0.250000
vt 0.250000 0.500000
vt 0.625000 0.875000
vt 0.750000 0.750000
vt 0.250000 0.750000
vt 0.375000 0.875000
vt 0.750000 0.500000
vt 0.250000 0.500000
vt 0.375000 0.375000
vt 0.625000 0.375000
vt 0.750000 0.500000
vt 0.875000 0.500000
vt 0.625000 0.250000
vt 0.375000 0.250000
vt 0.125000 0.500000
vt 0.375000 0.500000
vt 0.625000 0.500000
vt 0.750000 0.500000
vt 0.250000 0.500000
vt 0.250000 0.500000
vt 0.375000 0.375000
vt 0.125000 0.500000
vt 0.375000 0.250000
vt 0.250000 0.500000
vt 0.375000 0.250000
vt 0.125000 0.500000
vt 0.375000 0.500000
vt 0.250000 0.500000
vt 0.375000 0.375000
vt 0.250000 0.500000
vt 0.375000 0.500000
vt 0.625000 0.375000
vt 0.750000 0.500000
vt 0.625000 0.500000
vt 0.625000 0.500000
vt 0.750000 0.500000
vt 0.875000 0.500000
vt 0.625000 0.250000
vt 0.875000 0.500000
vt 0.625000 0.250000
vt 0.750000 0.500000
vt 0.625000 0.375000
vt 0.750000 0.500000
vt 0.125000 0.611015
vt 0.375000 0.138985
vt 0.625000 0.611015
vt 0.625000 0.138985
vt 0.875000 0.611015
vt 0.375000 0.611015
vt 0.250000 0.611015
vt 0.750000 0.611015
vt 0.375000 0.111769
vt 0.125000 0.638231
vt 0.625000 0.638231
vt 0.250000 0.638231
vt 0.750000 0.638231
vt 0.875000 0.638231
vt 0.625000 0.111769
vt 0.375000 0.638231
vt 0.875000 0.638231
vt 0.625000 0.111769
vt 0.625000 0.138985
vt 0.875000 0.611015
vt 0.375000 0.138985
vt 0.375000 0.111769
vt 0.375000 0.638231
vt 0.375000 0.611015
vt 0.625000 0.611015
vt 0.625000 0.638231
vt 0.875000 0.631427
vt 0.875000 0.624623
vt 0.875000 0.617819
vt 0.375000 0.631427
vt 0.375000 0.624623
vt 0.375000 0.617819
vt 0.125000 0.617819
vt 0.125000 0.624623
vt 0.125000 0.631427
vt 0.625000 0.617819
vt 0.625000 0.624623
vt 0.625000 0.631427
vt 0.250000 0.617819
vt 0.250000 0.624623
vt 0.250000 0.631427
vt 0.750000 0.617819
vt 0.750000 0.624623
vt 0.750000 0.631427
vt 0.875000 0.631427
vt 0.625000 0.118573
vt 0.625000 0.125377
vt 0.625000 0.132181
vt 0.875000 0.617819
vt 0.375000 0.132181
vt 0.375000 0.125377
vt 0.125000 0.624623
vt 0.375000 0.118573
vt 0.375000 0.631427
vt 0.375000 0.624623
vt 0.375000 0.617819
vt 0.625000 0.617819
vt 0.625000 0.624623
vt 0.625000 0.631427
vt 0.375000 0.111769
vt 0.125000 0.638231
vt 0.125000 0.611015
vt 0.375000 0.138985
vt 0.875000 0.611015
vt 0.625000 0.138985
vt 0.875000 0.638231
vt 0.625000 0.111769
vt 0.875000 0.631427
vt 0.875000 0.624623
vt 0.875000 0.617819
vt 0.125000 0.617819
vt 0.125000 0.624623
vt 0.125000 0.631427
vt 0.125000 0.631427
vt 0.375000 0.118573
vt 0.125000 0.638231
vt 0.375000 0.111769
vt 0.375000 0.111769
vt 0.125000 0.638231
vt 0.375000 0.125377
vt 0.125000 0.624623
vt 0.125000 0.624623
vt 0.125000 0.631427
vt 0.125000 0.611015
vt 0.375000 0.138985
vt 0.125000 0.617819
vt 0.375000 0.132181
vt 0.125000 0.624623
vt 0.375000 0.125377
vt 0.125000 0.617819
vt 0.125000 0.624623
vt 0.125000 0.611015
vt 0.375000 0.138985
vt 0.625000 0.118573
vt 0.875000 0.631427
vt 0.875000 0.624623
vt 0.625000 0.125377
vt 0.875000 0.617819
vt 0.625000 0.132181
vt 0.875000 0.631427
vt 0.875000 0.624623
vt 0.875000 0.617819
s 0
usemtl Material
f 51/74/1 50/73/1 14/21/1
f 14/20/2 15/23/2 8/13/2
f 43/64/3 41/62/3 6/7/3
f 52/76/4 49/72/4 15/22/4
f 48/71/5 52/76/5 4/4/5
f 19/30/3 20/31/3 10/16/3
f 18/27/6 17/26/6 9/15/6
f 24/36/7 17/25/7 25/37/7
f 11/17/7 22/34/7 35/52/7
f 21/33/5 22/34/5 11/17/5
f 19/29/2 37/54/2 40/60/2
f 17/25/8 24/36/8 31/47/8
f 12/18/6 10/16/6 17/26/6
f 49/72/4 47/70/4 8/14/4
f 3/3/2 4/4/2 15/23/2
f 50/73/1 48/71/1 3/3/1
f 13/19/4 2/2/4 21/33/4
f 16/24/1 5/6/1 19/29/1
f 2/2/5 1/1/5 22/34/5
f 1/1/1 16/24/1 23/35/1
f 6/8/4 13/19/4 24/36/4
f 5/5/3 6/7/3 20/31/3
f 28/43/4 27/41/4 25/37/4
f 10/16/6 26/40/6 25/38/6
f 10/16/9 20/31/9 28/42/9
f 20/32/2 24/36/2 27/41/2
f 31/47/4 32/48/4 29/44/4
f 21/33/2 32/48/2 31/47/2
f 21/33/10 9/15/10 29/44/10
f 9/15/6 17/26/6 30/46/6
f 35/52/1 36/53/1 33/50/1
f 22/34/2 23/35/2 36/53/2
f 11/17/6 34/51/6 33/49/6
f 23/35/9 18/28/9 33/50/9
f 40/60/1 37/54/1 38/56/1
f 18/28/10 23/35/10 40/60/10
f 19/30/8 12/18/8 38/57/8
f 12/18/6 18/27/6 39/59/6
f 16/24/1 1/1/1 42/63/1
f 13/19/4 6/8/4 41/61/4
f 1/1/5 2/2/5 44/66/5
f 2/2/4 13/19/4 45/67/4
f 84/113/3 101/135/3 104/140/3
f 5/6/1 16/24/1 46/68/1
f 7/11/3 8/12/3 47/69/3
f 78/104/1 72/98/1 48/71/1
f 75/101/4 69/95/4 47/70/4
f 52/76/2 48/71/2 60/86/2
f 64/90/4 75/101/4 49/72/4
f 61/87/1 78/104/1 50/73/1
f 81/108/3 82/110/3 55/81/3
f 92/123/6 93/125/6 54/79/6
f 93/124/1 97/130/1 81/109/1
f 94/127/2 91/120/2 56/82/2
f 85/114/5 57/83/5 60/86/5
f 42/63/6 44/66/6 58/84/6
f 48/71/1 72/98/1 90/119/1
f 44/66/4 66/92/4 87/116/4
f 64/90/4 52/76/4 57/83/4
f 65/91/4 64/90/4 85/114/4
f 66/92/4 65/91/4 86/115/4
f 70/96/1 42/63/1 59/85/1
f 71/97/1 70/96/1 88/117/1
f 72/98/1 71/97/1 89/118/1
f 59/85/5 58/84/5 87/116/5
f 88/117/5 87/116/5 86/115/5
f 86/115/5 85/114/5 90/119/5
f 95/128/1 94/126/1 53/77/1
f 96/129/5 95/128/5 116/160/5
f 97/130/5 96/129/5 117/161/5
f 53/78/3 56/82/3 84/113/3
f 79/106/3 84/113/3 83/111/3
f 80/107/3 83/111/3 82/110/3
f 43/65/1 46/68/1 76/102/1
f 63/89/1 76/102/1 77/103/1
f 62/88/1 77/103/1 78/104/1
f 44/66/4 45/67/4 73/99/4
f 66/92/4 73/99/4 74/100/4
f 65/91/4 74/100/4 75/101/4
f 45/67/4 41/61/4 67/93/4
f 73/99/4 67/93/4 68/94/4
f 74/100/4 68/94/4 69/95/4
f 46/68/1 42/63/1 70/96/1
f 76/102/1 70/96/1 71/97/1
f 77/103/1 71/97/1 72/98/1
f 83/112/11 99/132/11 111/151/11
f 98/131/5 110/150/5 111/151/5
f 99/132/12 83/112/12 104/141/12
f 69/95/4 68/94/4 99/132/4
f 68/94/4 67/93/4 98/131/4
f 67/93/4 41/61/4 92/122/4
f 63/89/1 62/88/1 96/129/1
f 62/88/1 61/87/1 95/128/1
f 61/87/1 51/74/1 94/126/1
f 51/75/2 47/69/2 91/120/2
f 43/65/1 63/89/1 97/130/1
f 41/62/6 43/64/6 93/125/6
f 47/70/4 69/95/4 100/133/4
f 103/139/4 106/143/4 101/134/4
f 106/143/4 105/142/4 104/141/4
f 56/82/13 91/120/13 103/138/13
f 56/82/3 102/137/3 101/135/3
f 100/133/5 99/132/5 105/142/5
f 91/121/5 100/133/5 106/143/5
f 110/150/4 112/152/4 107/144/4
f 111/151/4 110/150/4 108/146/4
f 55/81/3 82/110/3 108/147/3
f 92/122/5 112/152/5 110/150/5
f 92/123/14 55/81/14 107/145/14
f 82/110/3 83/111/3 109/149/3
f 117/161/1 116/160/1 113/155/1
f 118/162/1 117/161/1 114/156/1
f 79/106/3 80/107/3 114/157/3
f 97/130/6 118/162/6 115/158/6
f 95/128/2 79/105/2 113/155/2
f 80/107/3 81/108/3 115/159/3
f 51/74/1 14/21/1 7/9/1
f 14/20/2 8/13/2 7/10/2
f 43/64/3 6/7/3 5/5/3
f 52/76/4 15/22/4 4/4/4
f 48/71/5 4/4/5 3/3/5
f 19/30/3 10/16/3 12/18/3
f 18/27/6 9/15/6 11/17/6
f 24/36/7 25/37/7 27/41/7
f 11/17/7 35/52/7 34/51/7
f 21/33/5 11/17/5 9/15/5
f 19/29/2 40/60/2 23/35/2
f 17/25/8 31/47/8 30/45/8
f 12/18/6 17/26/6 18/27/6
f 49/72/4 8/14/4 15/22/4
f 3/3/2 15/23/2 14/20/2
f 50/73/1 3/3/1 14/21/1
f 13/19/4 21/33/4 24/36/4
f 16/24/1 19/29/1 23/35/1
f 2/2/5 22/34/5 21/33/5
f 1/1/1 23/35/1 22/34/1
f 6/8/4 24/36/4 20/32/4
f 5/5/3 20/31/3 19/30/3
f 28/43/4 25/37/4 26/39/4
f 10/16/6 25/38/6 17/26/6
f 10/16/9 28/42/9 26/40/9
f 20/32/2 27/41/2 28/43/2
f 31/47/4 29/44/4 30/45/4
f 21/33/2 31/47/2 24/36/2
f 21/33/10 29/44/10 32/48/10
f 9/15/6 30/46/6 29/44/6
f 35/52/1 33/50/1 34/51/1
f 22/34/2 36/53/2 35/52/2
f 11/17/6 33/49/6 18/27/6
f 23/35/9 33/50/9 36/53/9
f 40/60/1 38/56/1 39/58/1
f 18/28/10 40/60/10 39/58/10
f 19/30/8 38/57/8 37/55/8
f 12/18/6 39/59/6 38/57/6
f 16/24/1 42/63/1 46/68/1
f 13/19/4 41/61/4 45/67/4
f 1/1/5 44/66/5 42/63/5
f 2/2/4 45/67/4 44/66/4
f 84/113/3 104/140/3 83/111/3
f 5/6/1 46/68/1 43/65/1
f 7/11/3 47/69/3 51/75/3
f 78/104/1 48/71/1 50/73/1
f 75/101/4 47/70/4 49/72/4
f 52/76/2 60/86/2 57/83/2
f 64/90/4 49/72/4 52/76/4
f 61/87/1 50/73/1 51/74/1
f 81/108/3 55/81/3 54/79/3
f 92/123/6 54/79/6 55/81/6
f 93/124/1 81/109/1 54/80/1
f 94/127/2 56/82/2 53/78/2
f 85/114/5 60/86/5 90/119/5
f 42/63/6 58/84/6 59/85/6
f 48/71/1 90/119/1 60/86/1
f 44/66/4 87/116/4 58/84/4
f 64/90/4 57/83/4 85/114/4
f 65/91/4 85/114/4 86/115/4
f 66/92/4 86/115/4 87/116/4
f 70/96/1 59/85/1 88/117/1
f 71/97/1 88/117/1 89/118/1
f 72/98/1 89/118/1 90/119/1
f 59/85/5 87/116/5 88/117/5
f 88/117/5 86/115/5 89/118/5
f 86/115/5 90/119/5 89/118/5
f 95/128/1 53/77/1 79/105/1
f 96/129/5 116/160/5 117/161/5
f 97/130/5 117/161/5 118/162/5
f 53/78/3 84/113/3 79/106/3
f 79/106/3 83/111/3 80/107/3
f 80/107/3 82/110/3 81/108/3
f 43/65/1 76/102/1 63/89/1
f 63/89/1 77/103/1 62/88/1
f 62/88/1 78/104/1 61/87/1
f 44/66/4 73/99/4 66/92/4
f 66/92/4 74/100/4 65/91/4
f 65/91/4 75/101/4 64/90/4
f 45/67/4 67/93/4 73/99/4
f 73/99/4 68/94/4 74/100/4
f 74/100/4 69/95/4 75/101/4
f 46/68/1 70/96/1 76/102/1
f 76/102/1 71/97/1 77/103/1
f 77/103/1 72/98/1 78/104/1
f 83/112/11 111/151/11 109/148/11
f 98/131/5 111/151/5 99/132/5
f 99/132/12 104/141/12 105/142/12
f 69/95/4 99/132/4 100/133/4
f 68/94/4 98/131/4 99/132/4
f 67/93/4 92/122/4 98/131/4
f 63/89/1 96/129/1 97/130/1
f 62/88/1 95/128/1 96/129/1
f 61/87/1 94/126/1 95/128/1
f 51/75/2 91/120/2 94/127/2
f 43/65/1 97/130/1 93/124/1
f 41/62/6 93/125/6 92/123/6
f 47/70/4 100/133/4 91/121/4
f 103/139/4 101/134/4 102/136/4
f 106/143/4 104/141/4 101/134/4
f 56/82/13 103/138/13 102/137/13
f 56/82/3 101/135/3 84/113/3
f 100/133/5 105/142/5 106/143/5
f 91/121/5 106/143/5 103/139/5
f 110/150/4 107/144/4 108/146/4
f 111/151/4 108/146/4 109/148/4
f 55/81/3 108/147/3 107/145/3
f 92/122/5 110/150/5 98/131/5
f 92/123/14 107/145/14 112/153/14
f 82/110/3 109/149/3 108/147/3
f 117/161/1 113/155/1 114/156/1
f 118/162/1 114/156/1 115/158/1
f 79/106/3 114/157/3 113/154/3
f 97/130/6 115/158/6 81/109/6
f 95/128/2 113/155/2 116/160/2
f 80/107/3 115/159/3 114/157/3
