# Blender 3.3.0
# www.blender.org
mtllib cube.mtl
o Cube
v 11.035107 -7.098236 12.766172
v 11.035107 -32.133087 12.766172
v 11.035107 -7.098236 -12.268679
v 9.007631 -9.166782 -11.180554
v 11.035107 -32.133087 -12.268679
v 9.007631 -30.146683 -11.180554
v -13.999744 -7.098236 12.766172
v -13.999744 -32.133087 12.766172
v -13.999744 -7.098236 -12.268679
v -11.972269 -9.166782 -11.180554
v -13.999744 -32.133087 -12.268679
v -11.972269 -30.146683 -11.180554
v 9.007631 -30.146683 12.766172
v -11.972269 -9.166782 12.766172
v -11.972269 -30.146683 12.766172
v 9.007631 -9.166782 12.766172
vn 1.0000 -0.0000 -0.0000
vn -0.0000 -0.0000 -1.0000
vn -1.0000 -0.0000 -0.0000
vn -0.0000 -0.0000 1.0000
vn -0.0000 1.0000 -0.0000
vn -0.0000 -1.0000 -0.0000
vt 1.000000 0.000000
vt 0.000000 0.000000
vt 0.125000 0.750000
vt 1.000000 0.000000
vt 1.000000 1.000000
vt 0.000000 1.000000
vt 0.000000 0.000000
vt 0.125000 0.500000
vt 0.000000 1.000000
vt 0.000000 1.000000
vt 0.000000 0.000000
vt 1.000000 1.000000
vt 1.000000 0.000000
vt 1.000000 1.000000
vt 1.000000 0.000000
vt 1.000000 0.000000
vt 0.000000 1.000000
vt 0.375000 0.750000
vt 0.000000 0.000000
vt 1.000000 1.000000
vt 0.000000 1.000000
vt 0.000000 0.000000
vt 0.000000 1.000000
vt 0.375000 0.500000
vt 0.000000 1.000000
vt 0.000000 0.000000
vt 0.997354 0.000000
vt 0.000000 0.000000
vt 1.000000 1.000000
vt 1.000000 0.000000
vt 1.000000 0.000000
vt 1.000000 1.000000
vt -0.000000 0.000000
vt 1.000000 1.000000
vt 0.075857 0.905679
vt 1.000000 0.000000
vt 0.098333 0.911667
vt 1.000000 1.000000
vt 0.904019 0.094289
vt 0.000000 1.000000
vt 0.095000 0.097905
vt 0.924143 0.905679
vt 0.902352 0.902269
vt 1.000000 1.000000
vt 0.000000 1.000000
vt 0.000000 0.000000
vt 0.002646 1.000000
vt 0.901667 0.101667
vt 0.103333 0.098333
s 0
usemtl wood
f 2/4/1 3/9/1 1/2/1
f 5/13/2 9/23/2 3/7/2
f 11/30/3 7/17/3 9/22/3
f 8/20/4 14/39/4 7/16/4
f 8/20/4 13/35/4 15/42/4
f 9/24/5 1/3/5 3/8/5
f 5/13/6 8/21/6 11/28/6
f 6/14/3 16/46/3 4/10/3
f 10/25/4 6/15/4 4/11/4
f 10/26/1 15/44/1 12/31/1
f 10/27/6 16/47/6 14/38/6
f 6/15/5 15/45/5 13/34/5
f 7/19/4 16/48/4 1/1/4
f 16/49/4 2/6/4 1/2/4
f 2/4/1 5/12/1 3/9/1
f 5/13/2 11/29/2 9/23/2
f 11/30/3 8/20/3 7/17/3
f 8/20/4 15/43/4 14/39/4
f 8/20/4 2/6/4 13/35/4
f 9/24/5 7/18/5 1/3/5
f 5/13/6 2/5/6 8/21/6
f 6/14/3 13/36/3 16/46/3
f 10/25/4 12/32/4 6/15/4
f 10/26/1 14/40/1 15/44/1
f 10/27/6 4/11/6 16/47/6
f 6/15/5 12/33/5 15/45/5
f 7/19/4 14/41/4 16/48/4
f 16/49/4 13/37/4 2/6/4
