# Blender 3.3.0
# www.blender.org
mtllib floor.mtl
o Plane.001
v 0.000000 -0.359116 0.000000
v -2.000000 -0.359115 0.000000
v 0.000000 -0.359116 -7.000000
v -2.000000 -0.359115 -7.000000
v -2.000001 -2.359116 -0.000000
v -2.000001 -2.359115 -7.000000
v 0.000000 -0.359116 -9.000000
v -2.000000 -0.359115 -9.000000
v -2.000001 -2.359115 -9.000000
v 0.000000 -0.359116 -11.000000
v -2.000000 -0.359115 -11.000000
v -2.000001 -2.359115 -11.000000
v 2.000000 -0.359117 0.000000
v 2.000000 -0.359116 -7.000000
v 1.999999 -2.359117 -0.000000
v 1.999999 -2.359117 -7.000000
v 2.000000 -0.359116 -9.000000
v 1.999999 -2.359116 -9.000000
v 2.000000 -0.359116 -11.000000
v 1.999999 -2.359116 -11.000000
v -4.000000 -0.359114 -7.000000
v -4.000000 -2.359114 -7.000000
v -4.000000 -0.359114 -9.000000
v -4.000000 -2.359114 -9.000000
v -6.000000 -0.359114 -7.000000
v -6.000000 -2.359114 -7.000000
v -6.000000 -0.359114 -9.000000
v -6.000000 -2.359114 -9.000000
v -8.000000 -0.359113 -7.000000
v -8.000001 -2.359113 -7.000000
v -8.000000 -0.359113 -9.000000
v -8.000001 -2.359113 -9.000000
v -4.000000 -0.359114 -11.000000
v -4.000000 -2.359114 -11.000000
v -6.000000 -0.359114 -11.000000
v -6.000000 -2.359114 -11.000000
v 0.000000 -0.019116 0.000000
v -2.340000 -0.019115 0.000000
v 0.000000 -0.019116 -7.000000
v -2.340000 -0.019115 -6.660000
v -2.340001 -2.359115 -0.000000
v -2.340001 -2.359115 -6.660000
v 0.000000 -0.019116 -9.000000
v -2.340000 -0.019115 -9.340000
v -2.340001 -2.359115 -9.340000
v 0.000000 -0.019116 -11.000000
v -2.340000 -0.019115 -11.000000
v -2.340001 -2.359115 -11.000000
v 2.340000 -0.019117 0.000000
v 2.340000 -0.019117 -7.000000
v 2.339999 -2.359117 -0.000000
v 2.339999 -2.359117 -7.000000
v 2.340000 -0.019117 -9.000000
v 2.339999 -2.359116 -9.000000
v 2.340000 -0.019116 -11.000000
v 2.339999 -2.359116 -11.000000
v -4.000000 -0.019114 -6.660000
v -4.000000 -2.359115 -6.660000
v -3.660000 -0.019114 -9.340000
v -3.660001 -2.359115 -9.340000
v -6.000000 -0.019114 -6.660000
v -6.000000 -2.359114 -6.660000
v -6.340000 -0.019114 -9.340000
v -6.340001 -2.359114 -9.340000
v -8.000000 -0.019113 -6.660000
v -8.000001 -2.359113 -6.660000
v -8.000000 -0.019113 -9.340000
v -8.000001 -2.359113 -9.340000
v -3.660000 -0.019114 -11.000000
v -3.660001 -2.359114 -11.000000
v -6.340000 -0.019114 -11.000000
v -6.340001 -2.359114 -11.000000
v -0.000000 0.014472 0.454401
v -2.000000 0.014473 0.454401
v 2.000000 0.014472 0.454401
v 0.000000 0.354472 0.454401
v -2.340000 0.354473 0.454401
v 2.340000 0.354472 0.454401
v 0.000000 0.000727 -11.459167
v -2.000000 0.000728 -11.459167
v 2.000000 0.000726 -11.459167
v 0.000000 0.340727 -11.459167
v -2.340000 0.340728 -11.459167
v 2.340000 0.340726 -11.459167
v -8.439691 0.039754 -7.000000
v -8.439691 0.039754 -9.000000
v -8.439691 0.379754 -6.660000
v -8.439691 0.379754 -9.340000
v -4.000000 0.035530 -11.670930
v -6.000000 0.035530 -11.670930
v -3.660000 0.375530 -11.670930
v -6.340000 0.375531 -11.670930
vn -0.0000 -1.0000 -0.0000
vn 1.0000 -0.0000 -0.0000
vn -1.0000 -0.0000 -0.0000
vn -0.0000 -0.0000 1.0000
vn -0.0000 -0.0000 -1.0000
vn -0.0000 1.0000 -0.0000
vn -0.0000 0.7725 -0.6351
vn -0.0000 -0.7725 0.6351
vn -0.6529 -0.6529 -0.3840
vn -0.5399 -0.5952 -0.5952
vn -0.0000 -0.7871 -0.6168
vn -0.6185 -0.6185 -0.4847
vn 0.7071 -0.7071 -0.0000
vn -0.6113 -0.6113 0.5026
vn 0.6113 -0.6113 0.5026
vn -0.0000 0.7871 0.6168
vn 0.6185 -0.6185 -0.4847
vn -0.5399 -0.5952 0.5952
vn -0.6719 -0.7407 -0.0000
vn 0.6719 0.7407 -0.0000
vn 0.6529 -0.6529 -0.3840
vn -0.0000 -0.8619 -0.5070
vn -0.0000 0.8619 0.5070
vt 1.002497 -2.417942
vt 0.980234 -2.417942
vt 0.147092 0.500000
vt 0.942126 0.406301
vt 1.971969 -2.417942
vt 0.932205 0.406301
vt 0.147092 0.000038
vt 0.427361 0.927290
vt 0.031270 -0.882178
vt 0.903992 0.917460
vt 1.002497 1.010631
vt 0.980234 1.010631
vt 0.514984 0.406301
vt 1.971969 1.010631
vt 0.928286 -0.882178
vt 0.572858 0.404647
vt 0.932205 0.528342
vt 0.000071 0.927290
vt 0.935512 0.534956
vt 0.514984 0.528342
vt 0.505063 0.528342
vt 0.508370 0.534956
vt 0.572858 0.526688
vt 0.031270 0.014838
vt 0.903992 0.020444
vt 0.928286 0.014838
vt 0.598790 0.293106
vt 0.678244 0.179234
vt 0.031270 0.911854
vt 0.000121 0.500000
vt 0.712662 0.372559
vt 0.928286 0.911854
vt 0.427361 0.072710
vt 0.000121 0.000121
vt 0.792116 0.258687
vt 0.000071 0.072710
vt 0.942126 0.162220
vt -0.010490 -2.417942
vt 0.932205 0.162220
vt 0.427361 0.072710
vt 0.147092 0.999962
vt 0.514984 0.162220
vt -0.009478 1.010631
vt 0.006976 0.917460
vt 0.609762 0.000121
vt 0.572858 0.160566
vt 0.932205 0.040179
vt 0.935512 0.046793
vt 0.000071 0.072710
vt 0.514984 0.040179
vt 0.505063 0.040179
vt 0.572858 0.038525
vt 0.508370 0.046793
vt 0.006976 0.020444
vt 0.928286 0.014838
vt 0.136663 0.600008
vt 0.609762 0.500000
vt 0.000000 0.600008
vt 0.136663 0.736671
vt 0.928286 0.911854
vt 0.000121 0.999879
vt 0.427361 0.927290
vt 0.000072 0.927290
vt 0.000000 0.736671
vt 0.442477 0.393772
vt 0.453094 0.530409
vt 0.444998 0.217871
vt 0.564372 0.099780
vt 0.291365 0.413377
vt 0.324809 0.556109
vt 0.236843 0.233172
vt 0.079938 0.144096
vt 0.144764 0.463862
vt 0.873064 0.746223
vt 0.340964 0.000121
vt 0.188663 0.600008
vt 0.873065 0.000093
vt 0.086563 0.327686
vt 0.340964 0.500000
vt 0.126936 0.746223
vt 0.126935 0.000095
vt 0.000000 0.237415
vt 0.407586 0.057250
vt 0.340721 0.000121
vt 0.126935 0.746223
vt 0.126935 0.000094
vt 0.506655 0.008735
vt 0.278186 0.054152
vt 0.873065 0.746223
vt 0.340722 0.500000
vt 0.134090 0.000000
vt 0.873065 0.000093
vt 2.037500 -6.058333
vt 1.991667 -6.058333
vt 0.942126 0.406301
vt 0.932205 0.406301
vt 4.033333 -6.058333
vt 0.500000 0.999929
vt 0.031250 -3.000000
vt 1.977083 1.012500
vt 2.037500 1.000000
vt 1.991667 1.000000
vt 0.514984 0.406301
vt 4.033333 1.000000
vt 2.031250 -3.000000
vt 0.572858 0.404647
vt 0.932205 0.528342
vt 0.000071 0.999929
vt 0.935512 0.534956
vt 0.514984 0.528342
vt 0.505063 0.528342
vt 0.508370 0.534956
vt 0.572858 0.526688
vt 0.031250 -1.000000
vt 1.977083 -0.987500
vt 2.031250 -1.000000
vt 0.598790 0.293106
vt 0.678244 0.179234
vt 0.031250 1.000000
vt 0.712662 0.372559
vt 2.031250 1.000000
vt 0.500000 0.000071
vt 0.792116 0.258687
vt 0.000071 0.000071
vt 0.942126 0.162220
vt 0.932205 0.162220
vt -0.047917 -6.058333
vt 0.500000 0.000071
vt 0.514984 0.162220
vt -0.045833 1.000000
vt -0.022917 1.012500
vt 0.572858 0.160566
vt 0.489583 0.000121
vt 0.932205 0.040179
vt 0.000071 0.000071
vt 0.935512 0.046793
vt 0.514984 0.040179
vt 0.505063 0.040179
vt 0.572858 0.038525
vt 0.508370 0.046793
vt -0.022917 -0.987500
vt 2.031250 -1.000000
vt 0.136663 0.600008
vt 0.489583 0.500000
vt 0.000000 0.600008
vt 0.136663 0.736671
vt 2.031250 1.000000
vt 0.500000 0.999929
vt 0.000072 0.999929
vt 0.000000 0.736671
vt 0.442477 0.393772
vt 0.453094 0.530409
vt 0.444998 0.217871
vt 0.564372 0.099780
vt 0.291365 0.413377
vt 0.324809 0.556109
vt 0.236843 0.233172
vt 0.079938 0.144096
vt 0.144764 0.463862
vt 0.999906 0.873065
vt 0.188663 0.600008
vt 0.999906 0.000093
vt 0.000094 0.873065
vt 0.086563 0.327686
vt 0.000000 0.237415
vt 0.000093 0.000095
vt 0.000093 0.873065
vt 0.407586 0.057250
vt 0.000093 0.000094
vt 0.506655 0.008735
vt 0.278186 0.054152
vt 0.999907 0.873065
vt 0.134090 0.000000
vt 0.999907 0.000094
vt 0.427361 0.500000
vt 0.000038 0.500000
vt 0.000038 0.000038
vt 0.427361 0.927290
vt 0.000039 0.999962
vt 0.427361 0.072710
vt 2.037500 -6.058333
vt 0.500000 0.500000
vt 1.991667 -6.058333
vt 0.500000 0.999929
vt 4.033333 -6.058333
vt -0.047917 -6.058333
vt 0.500000 0.000071
vt 0.427361 0.500000
vt 0.145928 0.500000
vt 0.427361 0.072710
vt 0.145929 0.000121
vt 0.145929 0.999879
vt 0.427361 0.927290
vt 0.500000 0.500000
vt 0.031250 1.000000
vt 0.500000 0.000071
vt 2.031250 1.000000
vt 0.500000 0.999929
vt 2.031250 1.000000
vt 0.873064 0.746223
vt 0.489341 0.000121
vt 0.126936 0.746223
vt 0.489341 0.500000
vt 0.999906 0.873065
vt 0.144764 0.463862
vt 0.000094 0.873065
vt 0.086563 0.327686
vt 0.126935 0.746223
vt 0.146171 0.000121
vt 0.873065 0.746223
vt 0.146171 0.500000
vt 0.000093 0.873065
vt 0.407586 0.057250
vt 0.999907 0.873065
vt 0.278186 0.054152
s 0
usemtl Material.001
f 2/5/1 3/11/1 1/1/1
f 2/4/2 6/20/2 4/13/2
f 4/15/1 7/24/1 3/9/1
f 9/28/2 11/31/2 8/27/2
f 8/26/1 10/29/1 7/24/1
f 3/12/1 13/38/1 1/2/1
f 16/50/3 13/37/3 14/42/3
f 7/25/1 14/44/1 3/10/1
f 19/59/3 18/58/3 17/56/3
f 10/29/1 17/55/1 7/24/1
f 4/16/1 23/67/1 8/27/1
f 8/27/4 24/68/4 9/28/4
f 6/23/5 21/65/5 4/16/5
f 21/65/1 27/71/1 23/67/1
f 27/71/1 33/83/1 23/67/1
f 22/66/5 25/69/5 21/65/5
f 25/69/1 31/78/1 27/71/1
f 27/71/4 32/82/4 28/72/4
f 26/70/5 29/73/5 25/69/5
f 28/72/2 35/88/2 27/71/2
f 23/67/3 34/87/3 24/68/3
f 2/5/1 4/14/1 3/11/1
f 2/6/2 5/17/2 6/21/2
f 4/15/1 8/26/1 7/24/1
f 9/28/2 12/35/2 11/31/2
f 8/26/1 11/32/1 10/29/1
f 3/12/1 14/43/1 13/38/1
f 16/51/3 15/47/3 13/39/3
f 7/25/1 17/54/1 14/44/1
f 19/59/3 20/64/3 18/58/3
f 10/29/1 19/60/1 17/55/1
f 4/16/1 21/65/1 23/67/1
f 8/27/4 23/67/4 24/68/4
f 6/23/5 22/66/5 21/65/5
f 21/65/1 25/69/1 27/71/1
f 27/71/1 35/88/1 33/83/1
f 22/66/5 26/70/5 25/69/5
f 25/69/1 29/73/1 31/78/1
f 27/71/4 31/78/4 32/82/4
f 26/70/5 30/76/5 29/73/5
f 28/72/2 36/91/2 35/88/2
f 23/67/3 33/83/3 34/87/3
f 38/97/6 37/93/6 39/101/6
f 38/95/3 40/103/3 42/110/3
f 40/105/6 39/99/6 43/114/6
f 45/118/3 44/117/3 47/120/3
f 44/116/6 43/114/6 46/119/6
f 39/102/6 37/94/6 49/127/6
f 52/137/2 50/129/2 49/125/2
f 43/115/6 39/100/6 50/131/6
f 55/146/2 53/143/2 54/145/2
f 46/119/6 43/114/6 53/142/6
f 40/106/6 44/117/6 59/153/6
f 44/117/5 45/118/5 60/154/5
f 42/113/4 40/106/4 57/151/4
f 57/151/6 59/153/6 63/157/6
f 63/157/6 59/153/6 69/168/6
f 58/152/4 57/151/4 61/155/4
f 61/155/6 63/157/6 67/164/6
f 63/157/5 64/158/5 68/165/5
f 62/156/4 61/155/4 65/159/4
f 64/158/3 63/157/3 71/171/3
f 59/153/2 60/154/2 70/170/2
f 38/97/6 39/101/6 40/104/6
f 38/96/3 42/111/3 41/107/3
f 40/105/6 43/114/6 44/116/6
f 45/118/3 47/120/3 48/123/3
f 44/116/6 46/119/6 47/121/6
f 39/102/6 49/127/6 50/130/6
f 52/138/2 49/126/2 51/134/2
f 43/115/6 50/131/6 53/141/6
f 55/146/2 54/145/2 56/150/2
f 46/119/6 53/142/6 55/147/6
f 40/106/6 59/153/6 57/151/6
f 44/117/5 60/154/5 59/153/5
f 42/113/4 57/151/4 58/152/4
f 57/151/6 63/157/6 61/155/6
f 63/157/6 69/168/6 71/171/6
f 58/152/4 61/155/4 62/156/4
f 61/155/6 67/164/6 65/159/6
f 63/157/5 68/165/5 67/164/5
f 62/156/4 65/159/4 66/161/4
f 64/158/3 71/171/3 72/173/3
f 59/153/2 70/170/2 69/168/2
f 38/97/7 76/181/7 37/93/7
f 2/8/4 41/108/4 5/18/4
f 13/40/4 51/135/4 49/128/4
f 14/46/5 52/139/5 16/52/5
f 17/56/4 54/145/4 53/143/4
f 19/62/5 56/149/5 20/63/5
f 26/70/1 66/161/1 30/76/1
f 36/91/1 64/158/1 72/173/1
f 22/66/1 62/156/1 26/70/1
f 5/19/1 42/112/1 6/22/1
f 1/3/8 74/177/8 2/7/8
f 29/74/3 66/162/3 65/160/3
f 33/85/5 70/169/5 34/86/5
f 34/87/1 60/154/1 24/68/1
f 71/172/9 90/210/9 35/89/9
f 32/82/1 64/158/1 28/72/1
f 67/163/10 86/202/10 88/206/10
f 12/35/1 45/118/1 48/123/1
f 10/30/11 81/192/11 19/61/11
f 11/33/5 48/124/5 47/122/5
f 31/80/3 68/166/3 32/81/3
f 22/66/1 42/113/1 58/152/1
f 47/122/12 80/190/12 11/33/12
f 24/68/1 45/118/1 9/28/1
f 17/57/13 50/133/13 14/45/13
f 16/53/1 51/136/1 15/48/1
f 35/89/5 72/174/5 71/172/5
f 20/64/1 54/145/1 18/58/1
f 74/178/4 76/182/4 77/184/4
f 75/180/4 76/182/4 73/175/4
f 13/41/8 73/176/8 1/3/8
f 37/94/7 78/186/7 49/127/7
f 38/98/14 74/178/14 77/184/14
f 49/128/15 75/180/15 13/40/15
f 80/190/5 82/194/5 79/188/5
f 81/193/5 82/194/5 84/198/5
f 55/147/16 82/195/16 46/119/16
f 11/34/11 79/189/11 10/30/11
f 46/119/16 83/197/16 47/121/16
f 55/148/17 81/193/17 84/198/17
f 85/200/3 88/206/3 86/202/3
f 65/160/18 85/200/18 29/74/18
f 29/75/19 86/203/19 31/79/19
f 67/164/20 87/205/20 65/159/20
f 90/210/5 91/212/5 89/208/5
f 69/167/21 89/208/21 91/212/21
f 35/90/22 89/209/22 33/84/22
f 69/168/23 92/215/23 71/171/23
f 38/97/7 77/185/7 76/181/7
f 2/8/4 38/98/4 41/108/4
f 13/40/4 15/49/4 51/135/4
f 14/46/5 50/132/5 52/139/5
f 17/56/4 18/58/4 54/145/4
f 19/62/5 55/148/5 56/149/5
f 26/70/1 62/156/1 66/161/1
f 36/91/1 28/72/1 64/158/1
f 22/66/1 58/152/1 62/156/1
f 5/19/1 41/109/1 42/112/1
f 1/3/8 73/176/8 74/177/8
f 29/74/3 30/77/3 66/162/3
f 33/85/5 69/167/5 70/169/5
f 34/87/1 70/170/1 60/154/1
f 71/172/9 92/214/9 90/210/9
f 32/82/1 68/165/1 64/158/1
f 67/163/10 31/80/10 86/202/10
f 12/35/1 9/28/1 45/118/1
f 10/30/11 79/189/11 81/192/11
f 11/33/5 12/36/5 48/124/5
f 31/80/3 67/163/3 68/166/3
f 22/66/1 6/23/1 42/113/1
f 47/122/12 83/196/12 80/190/12
f 24/68/1 60/154/1 45/118/1
f 17/57/13 53/144/13 50/133/13
f 16/53/1 52/140/1 51/136/1
f 35/89/5 36/92/5 72/174/5
f 20/64/1 56/150/1 54/145/1
f 74/178/4 73/175/4 76/182/4
f 75/180/4 78/187/4 76/182/4
f 13/41/8 75/179/8 73/176/8
f 37/94/7 76/183/7 78/186/7
f 38/98/14 2/8/14 74/178/14
f 49/128/15 78/187/15 75/180/15
f 80/190/5 83/196/5 82/194/5
f 81/193/5 79/188/5 82/194/5
f 55/147/16 84/199/16 82/195/16
f 11/34/11 80/191/11 79/189/11
f 46/119/16 82/195/16 83/197/16
f 55/148/17 19/62/17 81/193/17
f 85/200/3 87/204/3 88/206/3
f 65/160/18 87/204/18 85/200/18
f 29/75/19 85/201/19 86/203/19
f 67/164/20 88/207/20 87/205/20
f 90/210/5 92/214/5 91/212/5
f 69/167/21 33/85/21 89/208/21
f 35/90/22 90/211/22 89/209/22
f 69/168/23 91/213/23 92/215/23
