# Blender 3.3.0
# www.blender.org
mtllib inside.mtl
o Plane
v 7.172957 0.000000 18.088102
v -10.852861 0.000000 18.088102
v 7.172957 0.000000 -18.088102
v -10.852861 0.000000 -18.088102
v 7.172957 -10.522402 18.088102
v -10.852861 -10.522402 18.088102
v 7.172957 -10.522402 -18.088102
v -10.852861 -10.508550 -18.088102
v 11.917859 0.000000 -27.272066
v 0.011874 0.000000 -43.786732
v 11.917859 -10.522402 -27.272066
v 0.011874 -10.508550 -43.786732
v 25.630873 0.000000 -27.345184
v 25.629589 0.000000 -44.110474
v 25.630873 -10.522402 -27.345184
v 25.629589 -10.508550 -44.110474
v 36.875107 0.000000 -27.345184
v 36.873825 0.000000 -44.110474
v 36.875107 -10.522402 -27.345184
v 36.873825 -10.508550 -44.110474
v 48.775169 0.000000 -27.345184
v 48.773888 0.000000 -44.110474
v 48.775169 -10.522402 -27.345184
v 48.773888 -10.508550 -44.110474
v 60.304176 0.000000 -27.345184
v 60.302895 0.000000 -44.110474
v 60.304176 -10.522402 -27.345184
v 60.302895 -10.508550 -44.110474
v 36.875107 0.000000 -13.740351
v 36.875107 -10.522402 -13.740351
v 48.775169 0.000000 -13.740351
v 48.775169 -10.522402 -13.740351
v 36.873825 0.000000 -57.544086
v 36.873825 -10.508550 -57.544086
v 48.773888 0.000000 -57.544086
v 48.773888 -10.508550 -57.544086
vn -0.0000 -1.0000 -0.0000
vn -0.0000 -0.0000 -1.0000
vn -1.0000 -0.0000 -0.0000
vn 1.0000 -0.0000 -0.0000
vn 0.9211 -0.0000 0.3894
vn -0.8884 -0.0000 -0.4590
vn 0.0126 -0.0000 0.9999
vn -0.0053 -0.0000 -1.0000
vn -0.0000 -0.0000 1.0000
vt 0.000000 0.000000
vt 0.395190 0.239226
vt 1.000000 0.000000
vt 0.412094 0.234726
vt 0.000000 1.000000
vt 0.398971 0.298574
vt 0.208377 0.161425
vt 1.000000 1.000000
vt 0.433418 0.254320
vt 1.000000 0.161425
vt 0.266836 0.045524
vt 0.377629 0.000090
vt 0.182821 0.127276
vt 0.532065 0.014323
vt 0.000000 0.403419
vt 0.402539 0.338406
vt 0.002346 0.461797
vt 0.462575 0.295533
vt 0.522864 0.838575
vt 0.392642 0.000000
vt 0.161831 0.152543
vt 0.631501 0.080620
vt 0.000000 0.997073
vt 0.395306 0.426756
vt 0.522554 0.999963
vt 0.464349 0.430194
vt 0.392643 1.000000
vt 0.232452 1.000000
vt 0.118839 0.203222
vt 0.736492 0.188026
vt 0.522554 0.675684
vt 0.380674 0.507876
vt 0.478936 0.520172
vt 0.232452 0.675721
vt 0.078451 0.251882
vt 0.775319 0.228207
vt 0.388746 0.620650
vt 0.522554 0.332491
vt 0.232452 0.332529
vt 0.483216 0.627966
vt 0.040402 0.951374
vt 0.785769 0.880863
vt 0.522554 0.000000
vt 0.415202 0.712588
vt 0.468694 0.707269
vt 0.232452 0.000037
vt 0.084767 0.999910
vt 0.744796 0.931349
vt 0.757968 0.675684
vt 0.325277 0.526992
vt 0.052924 0.281170
vt 0.322914 0.597851
vt 0.757968 0.332491
vt 0.000090 0.909635
vt 0.000000 0.675721
vt 0.538079 0.539348
vt 0.810639 0.263050
vt 0.000000 0.332529
vt 0.536754 0.608916
vt 0.810639 0.851846
s 0
usemtl floor
f 2/3/1 3/5/1 1/1/1
f 1/2/2 6/12/2 2/4/2
f 3/6/3 5/11/3 1/2/3
f 8/14/4 2/4/4 6/12/4
f 8/14/5 10/18/5 4/9/5
f 3/6/6 11/21/6 7/13/6
f 3/7/1 10/19/1 9/15/1
f 12/22/7 14/26/7 10/18/7
f 9/16/8 15/29/8 11/21/8
f 9/17/1 14/27/1 13/23/1
f 16/30/9 18/33/9 14/26/9
f 13/24/2 19/35/2 15/29/2
f 13/25/1 18/34/1 17/31/1
f 23/41/3 31/52/3 21/37/3
f 21/38/1 29/49/1 17/31/1
f 17/31/1 22/39/1 21/38/1
f 24/42/9 26/45/9 22/40/9
f 21/37/2 27/47/2 23/41/2
f 21/38/1 26/46/1 25/43/1
f 17/32/4 30/51/4 19/35/4
f 18/34/1 35/58/1 22/39/1
f 22/40/3 36/60/3 24/42/3
f 20/36/4 33/56/4 18/33/4
f 2/3/1 4/8/1 3/5/1
f 1/2/2 5/11/2 6/12/2
f 3/6/3 7/13/3 5/11/3
f 8/14/4 4/9/4 2/4/4
f 8/14/5 12/22/5 10/18/5
f 3/6/6 9/16/6 11/21/6
f 3/7/1 4/10/1 10/19/1
f 12/22/7 16/30/7 14/26/7
f 9/16/8 13/24/8 15/29/8
f 9/17/1 10/20/1 14/27/1
f 16/30/9 20/36/9 18/33/9
f 13/24/2 17/32/2 19/35/2
f 13/25/1 14/28/1 18/34/1
f 23/41/3 32/54/3 31/52/3
f 21/38/1 31/53/1 29/49/1
f 17/31/1 18/34/1 22/39/1
f 24/42/9 28/48/9 26/45/9
f 21/37/2 25/44/2 27/47/2
f 21/38/1 22/39/1 26/46/1
f 17/32/4 29/50/4 30/51/4
f 18/34/1 33/55/1 35/58/1
f 22/40/3 35/59/3 36/60/3
f 20/36/4 34/57/4 33/56/4
