# Blender 3.3.0
# www.blender.org
mtllib plane.mtl
o Plane
v 50.000000 20.774464 -49.999996
v -50.000000 20.774464 -49.999996
v 50.000000 26.880861 0.000000
v 0.000000 20.774464 -49.999996
v -50.000000 20.225952 0.000002
v 0.000000 20.854065 0.000002
v 50.000000 20.774473 -24.999998
v -25.000000 20.774464 -49.999996
v -50.000000 33.834789 24.999998
v 50.000000 26.467119 25.000000
v 25.000000 20.774464 -49.999996
v -50.000000 20.774473 -24.999998
v 0.000000 33.834789 24.999998
v 0.000000 20.774473 -24.999998
v 25.000000 26.880861 0.000000
v -25.000000 20.225952 0.000002
v -25.000000 20.774473 -24.999998
v 25.000000 20.774473 -24.999998
v 25.000000 26.466791 25.000000
v -25.000000 33.834789 24.999998
v 50.000000 20.774467 -37.499996
v -37.500000 20.774464 -49.999996
v -50.000000 33.834793 37.499996
v 50.000000 26.880865 12.500000
v 12.500000 20.774464 -49.999996
v -50.000000 20.225948 -12.499998
v 0.000000 33.834793 37.499996
v 0.000000 20.854061 -12.499998
v 37.500000 26.880861 0.000000
v -12.500000 20.854065 0.000002
v 50.000000 26.880857 -12.500000
v -12.500000 20.774464 -49.999996
v -50.000000 26.880865 12.500000
v 50.000000 26.467125 37.500000
v 37.500000 20.774464 -49.999996
v -50.000000 20.774467 -37.499996
v 0.000000 26.880865 12.500000
v 0.000000 20.774467 -37.499996
v 12.500000 26.880861 0.000000
v -37.500000 20.225952 0.000002
v -25.000000 20.225948 -12.499998
v -25.000000 20.774467 -37.499996
v -12.500000 20.774473 -24.999998
v -37.500000 20.774473 -24.999998
v 25.000000 26.880857 -12.500000
v 25.000000 20.774467 -37.499996
v 37.500000 20.774473 -24.999998
v 12.500000 20.774473 -24.999998
v 25.000000 26.466795 37.500000
v 25.000000 26.880865 12.500000
v 37.500000 26.467119 25.000000
v 12.500000 26.466791 25.000000
v -25.000000 33.834793 37.499996
v -25.000000 26.880865 12.500000
v -12.500000 33.834789 24.999998
v -37.500000 33.834789 24.999998
v -37.500000 26.880865 12.500000
v -12.500000 26.880865 12.500000
v -12.500000 33.834793 37.499996
v 12.500000 26.880865 12.500000
v 37.500000 26.880865 12.500000
v 37.500000 26.467125 37.500000
v 12.500000 20.774467 -37.499996
v 37.500000 20.774467 -37.499996
v 37.500000 26.880857 -12.500000
v -37.500000 20.774467 -37.499996
v -12.500000 20.774467 -37.499996
v -12.500000 20.854061 -12.499998
v -37.500000 20.225948 -12.499998
v 12.500000 26.880857 -12.500000
v 12.500000 26.466795 37.500000
v -37.500000 33.834793 37.499996
v 50.000000 -20.424658 -37.499985
v 50.000000 -20.424662 -49.999985
v -37.500000 -20.424662 -49.999985
v -50.000000 -20.424662 -49.999985
v 50.000000 -20.424643 12.500015
v 50.000000 -20.424646 0.000015
v 12.500000 -20.424662 -49.999985
v 0.000000 -20.424662 -49.999985
v -50.000000 -20.424650 -12.499985
v -50.000000 -20.424646 0.000015
v 0.000000 -20.424650 -12.499985
v 0.000000 -20.424646 0.000015
v 37.500000 -20.424646 0.000015
v -12.500000 -20.424646 0.000015
v 50.000000 -20.424650 -12.499985
v 50.000000 -20.424654 -24.999985
v -12.500000 -20.424662 -49.999985
v -25.000000 -20.424662 -49.999985
v -50.000000 -20.424643 12.500015
v -50.000000 -20.424639 25.000015
v 50.000000 -20.424635 37.500015
v 50.000000 -20.424639 25.000015
v 37.500000 -20.424662 -49.999985
v 25.000000 -20.424662 -49.999985
v -50.000000 -20.424658 -37.499985
v -50.000000 -20.424654 -24.999985
v 0.000000 -20.424643 12.500015
v 0.000000 -20.424639 25.000015
v 0.000000 -20.424658 -37.499985
v 0.000000 -20.424654 -24.999985
v 12.500000 -20.424646 0.000015
v 25.000000 -20.424646 0.000015
v -37.500000 -20.424646 0.000015
v -25.000000 -20.424646 0.000015
v -25.000000 -20.424650 -12.499985
v -25.000000 -20.424658 -37.499985
v -25.000000 -20.424654 -24.999985
v -12.500000 -20.424654 -24.999985
v -37.500000 -20.424654 -24.999985
v 25.000000 -20.424650 -12.499985
v 25.000000 -20.424658 -37.499985
v 25.000000 -20.424654 -24.999985
v 37.500000 -20.424654 -24.999985
v 12.500000 -20.424654 -24.999985
v 25.000000 -20.424643 12.500015
v 25.000000 -20.424639 25.000015
v 37.500000 -20.424639 25.000015
v 12.500000 -20.424639 25.000015
v -25.000000 -20.424643 12.500015
v -25.000000 -20.424639 25.000015
v -12.500000 -20.424639 25.000015
v -37.500000 -20.424639 25.000015
v -50.000000 -20.424635 37.500015
v 0.000000 -20.424635 37.500015
v 25.000000 -20.424635 37.500015
v -25.000000 -20.424635 37.500015
v -37.500000 -20.424643 12.500015
v -12.500000 -20.424643 12.500015
v -12.500000 -20.424635 37.500015
v 12.500000 -20.424643 12.500015
v 37.500000 -20.424643 12.500015
v 37.500000 -20.424635 37.500015
v 12.500000 -20.424658 -37.499985
v 37.500000 -20.424658 -37.499985
v 37.500000 -20.424650 -12.499985
v -37.500000 -20.424658 -37.499985
v -12.500000 -20.424658 -37.499985
v -12.500000 -20.424650 -12.499985
v -37.500000 -20.424650 -12.499985
v 12.500000 -20.424650 -12.499985
v 12.500000 -20.424635 37.500015
v -37.500000 -20.424635 37.500015
vn 0.4343 -0.9008 -0.0000
vn -0.0000 -1.0000 -0.0000
vn 0.0502 -0.9987 -0.0000
vn -0.0000 -0.9995 -0.0331
vn -0.0000 -0.8739 0.4861
vn -0.0000 -0.8827 0.4699
vn -0.0000 -0.9008 0.4343
vn 0.0443 -0.8818 0.4695
vn 0.3984 -0.8262 0.3984
vn -0.0000 -0.8985 0.4389
vn -0.0000 -1.0000 0.0064
vn -0.0000 -0.9990 -0.0438
vn -0.5078 -0.8615 -0.0000
vn -0.0000 1.0000 -0.0000
vn 1.0000 -0.0000 -0.0000
vn -0.0000 -0.0000 -1.0000
vn -1.0000 -0.0000 -0.0000
vn -0.0000 -0.0000 1.0000
vn -0.4579 -0.7769 0.4322
vn 0.0501 -0.9978 -0.0438
vn 0.3975 -0.8245 0.4028
vt 0.407126 0.460762
vt 0.810209 0.460667
vt 0.846872 0.863750
vt 0.189791 0.460801
vt 0.407126 0.000099
vt 0.810209 0.000000
vt 0.175123 0.460779
vt 0.875002 0.633417
vt 0.407126 0.230430
vt 0.810209 0.230333
vt 0.178263 0.000000
vt 0.187264 0.691134
vt 0.177966 0.230343
vt 0.292565 0.460717
vt 0.846872 0.748583
vt 0.407126 0.115264
vt 0.810209 0.115167
vt 0.057281 0.000191
vt 0.249955 0.806301
vt 0.060757 0.460727
vt 0.873096 0.518250
vt 0.407126 0.345596
vt 0.810209 0.345500
vt 0.292565 0.000054
vt 0.189791 0.575967
vt 0.057280 0.230523
vt 0.292565 0.230386
vt 0.175123 0.345613
vt 0.178263 0.115166
vt 0.292565 0.115220
vt 0.292565 0.345552
vt 0.060757 0.345561
vt 0.057281 0.115357
vt 0.349845 0.460740
vt 0.846872 0.806167
vt 0.407126 0.057681
vt 0.810209 0.057583
vt 0.407126 0.921334
vt 0.000000 0.000169
vt 0.249955 0.863884
vt 0.117842 0.460756
vt 0.875002 0.575833
vt 0.407126 0.288013
vt 0.810209 0.287917
vt 0.235543 0.000022
vt 0.187264 0.633551
vt 0.000000 0.230500
vt 0.407126 0.691000
vt 0.235247 0.230365
vt 0.175123 0.403196
vt 0.177966 0.172760
vt 0.232403 0.460801
vt 0.875002 0.691000
vt 0.407126 0.172847
vt 0.810209 0.172750
vt 0.117842 0.000093
vt 0.217921 0.748717
vt 0.873096 0.460667
vt 0.003476 0.460705
vt 0.441066 0.460667
vt 0.407126 0.403179
vt 0.810209 0.403083
vt 0.349845 0.000076
vt 0.189791 0.518384
vt 0.117842 0.230425
vt 0.349845 0.230408
vt 0.175123 0.288030
vt 0.178263 0.057583
vt 0.235543 0.115188
vt 0.349845 0.115242
vt 0.292565 0.172803
vt 0.292565 0.057637
vt 0.232403 0.345635
vt 0.349845 0.345574
vt 0.292565 0.403135
vt 0.292565 0.287969
vt 0.003477 0.345539
vt 0.441068 0.575833
vt 0.117842 0.345590
vt 0.060757 0.403144
vt 0.060757 0.287978
vt 0.000000 0.115334
vt 0.407126 0.806167
vt 0.117842 0.115259
vt 0.057280 0.172940
vt 0.057281 0.057774
vt 0.117842 0.057676
vt 0.117842 0.172842
vt 0.000000 0.172917
vt 0.407126 0.748583
vt 0.117842 0.288007
vt 0.117842 0.403173
vt 0.003476 0.403122
vt 0.441066 0.518250
vt 0.349845 0.287991
vt 0.349845 0.403157
vt 0.232403 0.403218
vt 0.349845 0.057659
vt 0.349845 0.172825
vt 0.235247 0.172782
vt 0.235543 0.057605
vt 0.232403 0.288052
vt 0.003477 0.287956
vt 0.441068 0.633417
vt 0.000000 0.057751
vt 0.407126 0.863750
vt 0.464709 0.460667
vt 0.657081 0.806167
vt 0.407126 0.460667
vt 0.657081 0.863750
vt 1.000000 0.460667
vt 0.407126 0.057583
vt 1.000000 0.057583
vt 0.407126 0.000000
vt 1.000000 0.000000
vt 0.000000 0.460801
vt 0.695043 0.460667
vt 0.657081 0.575833
vt 0.637459 0.460667
vt 0.657081 0.633417
vt 0.407126 0.287917
vt 1.000000 0.287917
vt 0.407126 0.230333
vt 1.000000 0.230333
vt 0.579876 0.000000
vt 0.000000 0.633551
vt 0.637459 0.000000
vt 0.000000 0.691134
vt 0.579876 0.230333
vt 0.637459 0.230333
vt 0.637459 0.403083
vt 0.637459 0.172750
vt 0.579876 0.460667
vt 0.657081 0.691000
vt 0.522292 0.460667
vt 0.657081 0.748583
vt 0.407126 0.172750
vt 1.000000 0.172750
vt 0.407126 0.115167
vt 1.000000 0.115167
vt 0.695043 0.000000
vt 0.000000 0.748717
vt 0.752626 0.000000
vt 0.000000 0.806301
vt 0.810209 0.460667
vt 0.657081 0.460667
vt 0.752626 0.460667
vt 0.657081 0.518250
vt 0.407126 0.403083
vt 1.000000 0.403083
vt 0.407126 0.345500
vt 1.000000 0.345500
vt 0.464709 0.000000
vt 0.000000 0.518384
vt 0.522292 0.000000
vt 0.000000 0.575967
vt 0.695043 0.230333
vt 0.752626 0.230333
vt 0.464709 0.230333
vt 0.522292 0.230333
vt 0.637459 0.287917
vt 0.637459 0.345500
vt 0.637459 0.057583
vt 0.637459 0.115167
vt 0.579876 0.115167
vt 0.464709 0.115167
vt 0.522292 0.115167
vt 0.522292 0.172750
vt 0.522292 0.057583
vt 0.579876 0.345500
vt 0.464709 0.345500
vt 0.522292 0.345500
vt 0.522292 0.403083
vt 0.522292 0.287917
vt 0.695043 0.345500
vt 0.752626 0.345500
vt 0.752626 0.403083
vt 0.752626 0.287917
vt 0.695043 0.115167
vt 0.752626 0.115167
vt 0.752626 0.172750
vt 0.752626 0.057583
vt 0.810209 0.000000
vt 0.657081 0.921334
vt 0.000000 0.863884
vt 0.810209 0.230333
vt 0.657081 0.691000
vt 0.810209 0.345500
vt 0.657081 0.575833
vt 0.810209 0.115167
vt 0.657081 0.806167
vt 0.695043 0.057583
vt 0.695043 0.172750
vt 0.810209 0.172750
vt 0.657081 0.748583
vt 0.695043 0.287917
vt 0.695043 0.403083
vt 0.810209 0.403083
vt 0.657081 0.518250
vt 0.464709 0.287917
vt 0.464709 0.403083
vt 0.579876 0.403083
vt 0.464709 0.057583
vt 0.464709 0.172750
vt 0.579876 0.172750
vt 0.579876 0.057583
vt 0.579876 0.287917
vt 0.810209 0.287917
vt 0.657081 0.633417
vt 0.810209 0.057583
vt 0.657081 0.863750
s 0
usemtl Material
f 39/67/1 28/49/1 70/102/1
f 40/68/2 26/45/2 69/101/2
f 30/51/3 41/69/3 68/100/3
f 43/71/2 42/70/2 67/99/2
f 44/72/2 36/63/2 66/98/2
f 29/50/2 45/73/2 65/97/2
f 47/75/2 46/74/2 64/96/2
f 48/76/2 38/66/2 63/95/2
f 51/80/4 50/79/4 61/92/4
f 52/81/4 37/65/4 60/91/4
f 55/85/5 54/84/5 58/88/5
f 56/86/5 33/56/5 57/87/5
f 20/33/5 57/87/5 54/84/5
f 54/84/6 40/68/6 16/29/6
f 57/87/6 5/11/6 40/68/6
f 13/26/5 58/88/5 37/65/5
f 37/65/7 30/51/7 6/13/7
f 30/51/8 54/84/8 16/29/8
f 27/47/2 55/85/2 13/26/2
f 59/89/2 20/33/2 55/85/2
f 19/32/4 60/91/4 50/79/4
f 50/79/2 39/67/2 15/28/2
f 39/67/9 37/65/9 6/13/9
f 10/20/4 61/92/4 24/41/4
f 24/41/2 29/50/2 3/7/2
f 61/92/2 15/28/2 29/50/2
f 34/59/2 51/80/2 10/20/2
f 62/93/2 19/32/2 51/80/2
f 18/31/2 63/95/2 46/74/2
f 46/74/2 25/43/2 11/22/2
f 63/95/2 4/9/2 25/43/2
f 7/14/2 64/96/2 21/34/2
f 21/34/2 35/61/2 1/1/2
f 64/96/2 11/22/2 35/61/2
f 3/7/2 65/97/2 31/52/2
f 31/52/10 47/75/10 7/14/10
f 65/97/10 18/31/10 47/75/10
f 17/30/2 66/98/2 42/70/2
f 42/70/2 22/36/2 8/16/2
f 66/98/2 2/5/2 22/36/2
f 14/27/2 67/99/2 38/66/2
f 38/66/2 32/54/2 4/9/2
f 67/99/2 8/16/2 32/54/2
f 6/13/2 68/100/2 28/49/2
f 28/49/11 43/71/11 14/27/11
f 68/100/11 17/30/11 43/71/11
f 16/29/2 69/101/2 41/69/2
f 41/69/12 44/72/12 17/30/12
f 69/101/12 12/24/12 44/72/12
f 15/28/2 70/102/2 45/73/2
f 45/73/10 48/76/10 18/31/10
f 48/76/11 28/49/11 14/27/11
f 49/77/2 52/81/2 19/32/2
f 71/103/13 13/26/13 52/81/13
f 53/82/2 56/86/2 20/33/2
f 72/105/2 9/18/2 56/86/2
f 83/129/14 103/161/14 142/207/14
f 81/125/14 105/163/14 141/206/14
f 107/165/14 86/132/14 140/205/14
f 108/166/14 110/168/14 139/204/14
f 97/153/14 111/169/14 138/203/14
f 112/170/14 85/131/14 137/202/14
f 113/171/14 115/173/14 136/201/14
f 101/159/14 116/174/14 135/200/14
f 117/175/14 119/177/14 133/197/14
f 99/157/14 120/178/14 132/196/14
f 121/179/14 123/181/14 130/193/14
f 91/141/14 124/182/14 129/192/14
f 129/192/14 122/180/14 121/179/14
f 105/163/14 121/179/14 106/164/14
f 82/127/14 129/192/14 105/163/14
f 130/193/14 100/158/14 99/157/14
f 86/132/14 99/157/14 84/130/14
f 106/164/14 130/193/14 86/132/14
f 123/181/14 126/186/14 100/158/14
f 122/180/14 131/194/14 123/181/14
f 132/196/14 118/176/14 117/175/14
f 103/161/14 117/175/14 104/162/14
f 84/130/14 132/196/14 103/161/14
f 133/197/14 94/147/14 77/117/14
f 85/131/14 77/117/14 78/119/14
f 104/162/14 133/197/14 85/131/14
f 119/177/14 93/145/14 94/147/14
f 118/176/14 134/198/14 119/177/14
f 135/200/14 114/172/14 113/171/14
f 79/121/14 113/171/14 96/151/14
f 80/123/14 135/200/14 79/121/14
f 136/201/14 88/135/14 73/107/14
f 95/149/14 73/107/14 74/109/14
f 96/151/14 136/201/14 95/149/14
f 137/202/14 78/119/14 87/133/14
f 115/173/14 87/133/14 88/135/14
f 114/172/14 137/202/14 115/173/14
f 138/203/14 109/167/14 108/166/14
f 75/112/14 108/166/14 90/139/14
f 76/114/14 138/203/14 75/112/14
f 139/204/14 102/160/14 101/159/14
f 89/137/14 101/159/14 80/123/14
f 90/139/14 139/204/14 89/137/14
f 140/205/14 84/130/14 83/129/14
f 110/168/14 83/129/14 102/160/14
f 109/167/14 140/205/14 110/168/14
f 141/206/14 106/164/14 107/165/14
f 111/169/14 107/165/14 109/167/14
f 98/155/14 141/206/14 111/169/14
f 142/207/14 104/162/14 112/170/14
f 116/174/14 112/170/14 114/172/14
f 102/160/14 142/207/14 116/174/14
f 120/178/14 127/188/14 118/176/14
f 100/158/14 143/208/14 120/178/14
f 124/182/14 128/190/14 122/180/14
f 92/143/14 144/210/14 124/182/14
f 33/57/15 92/144/15 91/142/15
f 59/90/16 128/191/16 53/83/16
f 26/46/15 98/156/15 12/25/15
f 10/21/17 93/146/17 34/58/17
f 11/23/18 95/150/18 35/62/18
f 12/25/15 97/154/15 36/64/15
f 1/3/17 73/108/17 21/35/17
f 2/6/18 75/113/18 22/37/18
f 49/78/16 143/209/16 71/104/16
f 31/53/17 78/120/17 3/8/17
f 3/8/17 77/118/17 24/42/17
f 71/104/16 126/187/16 27/48/16
f 32/55/18 80/124/18 4/10/18
f 4/10/18 79/122/18 25/44/18
f 5/12/15 91/142/15 82/128/15
f 5/12/15 81/126/15 26/46/15
f 53/83/16 144/211/16 72/106/16
f 35/62/18 74/111/18 1/2/18
f 21/35/17 88/136/17 7/15/17
f 72/106/16 125/184/16 23/38/16
f 36/64/15 76/116/15 2/4/15
f 22/37/18 90/140/18 8/17/18
f 34/60/16 134/199/16 62/94/16
f 23/40/15 92/144/15 9/19/15
f 49/78/16 134/199/16 127/189/16
f 7/15/17 87/134/17 31/53/17
f 10/21/17 77/118/17 94/148/17
f 27/48/16 131/195/16 59/90/16
f 8/17/18 89/138/18 32/55/18
f 25/44/18 96/152/18 11/23/18
f 39/67/1 6/13/1 28/49/1
f 40/68/2 5/11/2 26/45/2
f 30/51/3 16/29/3 41/69/3
f 43/71/2 17/30/2 42/70/2
f 44/72/2 12/24/2 36/63/2
f 29/50/2 15/28/2 45/73/2
f 47/75/2 18/31/2 46/74/2
f 48/76/2 14/27/2 38/66/2
f 51/80/4 19/32/4 50/79/4
f 52/81/19 13/26/19 37/65/19
f 55/85/5 20/33/5 54/84/5
f 56/86/5 9/18/5 33/56/5
f 20/33/5 56/86/5 57/87/5
f 54/84/6 57/87/6 40/68/6
f 57/87/6 33/56/6 5/11/6
f 13/26/5 55/85/5 58/88/5
f 37/65/7 58/88/7 30/51/7
f 30/51/7 58/88/7 54/84/7
f 27/47/2 59/89/2 55/85/2
f 59/89/2 53/82/2 20/33/2
f 19/32/4 52/81/4 60/91/4
f 50/79/2 60/91/2 39/67/2
f 39/67/2 60/91/2 37/65/2
f 10/20/4 51/80/4 61/92/4
f 24/41/2 61/92/2 29/50/2
f 61/92/2 50/79/2 15/28/2
f 34/59/2 62/93/2 51/80/2
f 62/93/2 49/77/2 19/32/2
f 18/31/2 48/76/2 63/95/2
f 46/74/2 63/95/2 25/43/2
f 63/95/2 38/66/2 4/9/2
f 7/14/2 47/75/2 64/96/2
f 21/34/2 64/96/2 35/61/2
f 64/96/2 46/74/2 11/22/2
f 3/7/2 29/50/2 65/97/2
f 31/52/10 65/97/10 47/75/10
f 65/97/10 45/73/10 18/31/10
f 17/30/2 44/72/2 66/98/2
f 42/70/2 66/98/2 22/36/2
f 66/98/2 36/63/2 2/5/2
f 14/27/2 43/71/2 67/99/2
f 38/66/2 67/99/2 32/54/2
f 67/99/2 42/70/2 8/16/2
f 6/13/2 30/51/2 68/100/2
f 28/49/11 68/100/11 43/71/11
f 68/100/20 41/69/20 17/30/20
f 16/29/2 40/68/2 69/101/2
f 41/69/12 69/101/12 44/72/12
f 69/101/12 26/45/12 12/24/12
f 15/28/2 39/67/2 70/102/2
f 45/73/10 70/102/10 48/76/10
f 48/76/21 70/102/21 28/49/21
f 49/77/2 71/103/2 52/81/2
f 71/103/13 27/47/13 13/26/13
f 53/82/2 72/105/2 56/86/2
f 72/105/2 23/39/2 9/18/2
f 83/129/14 84/130/14 103/161/14
f 81/125/14 82/127/14 105/163/14
f 107/165/14 106/164/14 86/132/14
f 108/166/14 109/167/14 110/168/14
f 97/153/14 98/155/14 111/169/14
f 112/170/14 104/162/14 85/131/14
f 113/171/14 114/172/14 115/173/14
f 101/159/14 102/160/14 116/174/14
f 117/175/14 118/176/14 119/177/14
f 99/157/14 100/158/14 120/178/14
f 121/179/14 122/180/14 123/181/14
f 91/141/14 92/143/14 124/182/14
f 129/192/14 124/182/14 122/180/14
f 105/163/14 129/192/14 121/179/14
f 82/127/14 91/141/14 129/192/14
f 130/193/14 123/181/14 100/158/14
f 86/132/14 130/193/14 99/157/14
f 106/164/14 121/179/14 130/193/14
f 123/181/14 131/194/14 126/186/14
f 122/180/14 128/190/14 131/194/14
f 132/196/14 120/178/14 118/176/14
f 103/161/14 132/196/14 117/175/14
f 84/130/14 99/157/14 132/196/14
f 133/197/14 119/177/14 94/147/14
f 85/131/14 133/197/14 77/117/14
f 104/162/14 117/175/14 133/197/14
f 119/177/14 134/198/14 93/145/14
f 118/176/14 127/188/14 134/198/14
f 135/200/14 116/174/14 114/172/14
f 79/121/14 135/200/14 113/171/14
f 80/123/14 101/159/14 135/200/14
f 136/201/14 115/173/14 88/135/14
f 95/149/14 136/201/14 73/107/14
f 96/151/14 113/171/14 136/201/14
f 137/202/14 85/131/14 78/119/14
f 115/173/14 137/202/14 87/133/14
f 114/172/14 112/170/14 137/202/14
f 138/203/14 111/169/14 109/167/14
f 75/112/14 138/203/14 108/166/14
f 76/114/14 97/153/14 138/203/14
f 139/204/14 110/168/14 102/160/14
f 89/137/14 139/204/14 101/159/14
f 90/139/14 108/166/14 139/204/14
f 140/205/14 86/132/14 84/130/14
f 110/168/14 140/205/14 83/129/14
f 109/167/14 107/165/14 140/205/14
f 141/206/14 105/163/14 106/164/14
f 111/169/14 141/206/14 107/165/14
f 98/155/14 81/125/14 141/206/14
f 142/207/14 103/161/14 104/162/14
f 116/174/14 142/207/14 112/170/14
f 102/160/14 83/129/14 142/207/14
f 120/178/14 143/208/14 127/188/14
f 100/158/14 126/186/14 143/208/14
f 124/182/14 144/210/14 128/190/14
f 92/143/14 125/183/14 144/210/14
f 33/57/15 9/19/15 92/144/15
f 59/90/16 131/195/16 128/191/16
f 26/46/15 81/126/15 98/156/15
f 10/21/17 94/148/17 93/146/17
f 11/23/18 96/152/18 95/150/18
f 12/25/15 98/156/15 97/154/15
f 1/3/17 74/110/17 73/108/17
f 2/6/18 76/115/18 75/113/18
f 49/78/16 127/189/16 143/209/16
f 31/53/17 87/134/17 78/120/17
f 3/8/17 78/120/17 77/118/17
f 71/104/16 143/209/16 126/187/16
f 32/55/18 89/138/18 80/124/18
f 4/10/18 80/124/18 79/122/18
f 5/12/15 33/57/15 91/142/15
f 5/12/15 82/128/15 81/126/15
f 53/83/16 128/191/16 144/211/16
f 35/62/18 95/150/18 74/111/18
f 21/35/17 73/108/17 88/136/17
f 72/106/16 144/211/16 125/184/16
f 36/64/15 97/154/15 76/116/15
f 22/37/18 75/113/18 90/140/18
f 34/60/16 93/146/16 134/199/16
f 23/40/15 125/185/15 92/144/15
f 49/78/16 62/94/16 134/199/16
f 7/15/17 88/136/17 87/134/17
f 10/21/17 24/42/17 77/118/17
f 27/48/16 126/187/16 131/195/16
f 8/17/18 90/140/18 89/138/18
f 25/44/18 79/122/18 96/152/18
