# Blender 3.3.0
# www.blender.org
mtllib thang.mtl
o Cube
v 1.000000 1.000000 -1.000000
v 1.000000 -1.000000 -1.000000
v 1.000000 1.000000 1.000000
v 1.000000 -1.000000 1.000000
v -1.000000 1.000000 -1.000000
v -1.000000 -1.000000 -1.000000
v -1.000000 1.000000 1.000000
v -1.000000 -1.000000 1.000000
v 1.625012 2.285395 1.625012
v -1.625012 2.285395 1.625012
v 1.625012 2.285395 -1.625012
v -1.625012 2.285395 -1.625012
v 1.625012 3.256259 1.625012
v -1.625012 3.256259 1.625012
v 1.625012 3.256259 -1.625012
v -1.625012 3.256259 -1.625012
v 1.111815 4.063252 1.111815
v -1.111815 4.063252 1.111815
v 1.111815 4.063252 -1.111815
v -1.111815 4.063252 -1.111815
v 1.111815 6.211460 1.111815
v -1.111815 6.211460 1.111815
v 1.111815 6.211460 -1.111815
v -1.111815 6.211460 -1.111815
v 1.111815 4.063252 8.764598
v -1.111815 4.063252 8.764598
v -1.111815 4.063252 -8.764598
v 1.111815 4.063252 -8.764598
v 1.111815 6.211460 8.764598
v -1.111815 6.211460 8.764598
v -1.111815 6.211460 -8.764598
v 1.111815 6.211460 -8.764598
vn -0.0000 -0.4373 0.8993
vn -0.0000 -0.0000 1.0000
vn -1.0000 -0.0000 -0.0000
vn -0.0000 -1.0000 -0.0000
vn 1.0000 -0.0000 -0.0000
vn -0.0000 -0.0000 -1.0000
vn -0.8993 -0.4373 -0.0000
vn 0.8993 -0.4373 -0.0000
vn -0.0000 -0.4373 -0.8993
vn -0.8438 0.5366 -0.0000
vn -0.0000 0.5366 0.8438
vn -0.0000 0.5366 -0.8438
vn 0.8438 0.5366 -0.0000
vn -0.0000 1.0000 -0.0000
vt 0.625000 0.500000
vt 0.375000 0.500000
vt 0.625000 0.750000
vt 0.375000 0.750000
vt 0.625000 0.250000
vt 0.125000 0.500000
vt 0.375000 0.250000
vt 0.625000 1.000000
vt 0.625000 0.000000
vt 0.375000 0.000000
vt 0.375000 1.000000
vt 0.125000 0.750000
vt 0.625000 0.750000
vt 0.625000 1.000000
vt 0.625000 0.000000
vt 0.625000 0.500000
vt 0.625000 0.250000
vt 0.625000 0.750000
vt 0.625000 0.000000
vt 0.625000 1.000000
vt 0.625000 0.500000
vt 0.625000 0.250000
vt 0.625000 0.750000
vt 0.625000 1.000000
vt 0.625000 0.000000
vt 0.625000 0.500000
vt 0.625000 0.250000
vt 0.625000 0.750000
vt 0.625000 0.000000
vt 0.875000 0.750000
vt 0.625000 0.500000
vt 0.875000 0.500000
vt 0.625000 0.250000
vt 0.625000 0.750000
vt 0.625000 1.000000
vt 0.625000 0.000000
vt 0.625000 0.250000
vt 0.625000 0.500000
vt 0.625000 0.750000
vt 0.875000 0.750000
vt 0.625000 1.000000
vt 0.625000 0.000000
vt 0.625000 0.250000
vt 0.875000 0.500000
vt 0.625000 0.500000
s 0
usemtl Material
f 3/3/1 10/14/1 7/8/1
f 3/3/2 8/11/2 4/4/2
f 7/9/3 6/7/3 8/10/3
f 2/2/4 8/12/4 6/6/4
f 1/1/5 4/4/5 2/2/5
f 5/5/6 2/2/6 6/7/6
f 12/17/6 15/21/6 11/16/6
f 7/9/7 12/17/7 5/5/7
f 1/1/8 9/13/8 3/3/8
f 5/5/9 11/16/9 1/1/9
f 14/19/10 20/27/10 16/22/10
f 11/16/5 13/18/5 9/13/5
f 10/15/3 16/22/3 12/17/3
f 9/13/2 14/20/2 10/14/2
f 18/25/3 24/33/3 20/27/3
f 13/18/11 18/24/11 14/20/11
f 16/22/12 19/26/12 15/21/12
f 15/21/13 17/23/13 13/18/13
f 24/32/14 21/28/14 23/31/14
f 19/26/5 32/45/5 23/31/5
f 22/30/14 29/39/14 21/28/14
f 19/26/5 21/28/5 17/23/5
f 25/34/2 30/41/2 26/35/2
f 27/37/6 32/45/6 28/38/6
f 24/33/3 27/37/3 20/27/3
f 17/23/4 26/35/4 18/24/4
f 23/31/14 31/44/14 24/32/14
f 21/28/5 25/34/5 17/23/5
f 20/27/4 28/38/4 19/26/4
f 18/25/3 30/42/3 22/29/3
f 3/3/1 9/13/1 10/14/1
f 3/3/2 7/8/2 8/11/2
f 7/9/3 5/5/3 6/7/3
f 2/2/4 4/4/4 8/12/4
f 1/1/5 3/3/5 4/4/5
f 5/5/6 1/1/6 2/2/6
f 12/17/6 16/22/6 15/21/6
f 7/9/7 10/15/7 12/17/7
f 1/1/8 11/16/8 9/13/8
f 5/5/9 12/17/9 11/16/9
f 14/19/10 18/25/10 20/27/10
f 11/16/5 15/21/5 13/18/5
f 10/15/3 14/19/3 16/22/3
f 9/13/2 13/18/2 14/20/2
f 18/25/3 22/29/3 24/33/3
f 13/18/11 17/23/11 18/24/11
f 16/22/12 20/27/12 19/26/12
f 15/21/13 19/26/13 17/23/13
f 24/32/14 22/30/14 21/28/14
f 19/26/5 28/38/5 32/45/5
f 22/30/14 30/40/14 29/39/14
f 19/26/5 23/31/5 21/28/5
f 25/34/2 29/39/2 30/41/2
f 27/37/6 31/43/6 32/45/6
f 24/33/3 31/43/3 27/37/3
f 17/23/4 25/34/4 26/35/4
f 23/31/14 32/45/14 31/44/14
f 21/28/5 29/39/5 25/34/5
f 20/27/4 27/37/4 28/38/4
f 18/25/3 26/36/3 30/42/3
