# Blender 3.3.0
# www.blender.org
mtllib wall.mtl
o Plane.001
v -9.999997 -10.000000 -60.000000
v -9.999996 -0.000000 -60.000000
v -9.999998 -10.000000 0.000000
v -9.999997 -0.000000 0.000000
v -29.999998 -9.999999 -60.000000
v -29.999996 -0.000000 -60.000000
v -29.999998 -9.999999 0.000000
v -29.999996 -0.000000 0.000000
v 0.000001 -9.999999 -80.000000
v 0.000000 -0.000000 -80.000000
v -70.000000 -10.000000 -80.000000
v -69.999992 -0.000000 -80.000000
v -70.000000 -10.000000 -60.000000
v -69.999992 -0.000000 -60.000000
v -50.000000 -10.000000 -60.000000
v -49.999996 -0.000000 -60.000000
v -50.000000 -10.000000 0.000000
v -49.999996 -0.000000 0.000000
v 9.999999 -9.999998 -60.000000
v 9.999996 0.000001 -60.000000
v 10.000000 -9.999998 0.000000
v 9.999997 0.000001 0.000000
v 29.999998 -9.999995 -60.000000
v 29.999996 0.000004 -60.000000
v 29.999998 -9.999995 0.000000
v 29.999996 0.000004 0.000000
v 70.000000 -9.999989 -80.000000
v 69.999992 0.000010 -80.000000
v 70.000000 -9.999989 -60.000000
v 69.999992 0.000010 -60.000000
v 50.000000 -9.999992 -60.000000
v 49.999996 0.000007 -60.000000
v 50.000000 -9.999992 0.000000
v 49.999996 0.000007 0.000000
vn 1.0000 -0.0000 -0.0000
vn -0.0000 -0.0000 -1.0000
vn -1.0000 -0.0000 -0.0000
vn -0.0000 -0.0000 1.0000
vt 0.166667 1.000000
vt 0.000000 1.000000
vt 0.125000 1.000000
vt 0.000000 1.000000
vt 0.166667 0.000000
vt 0.000000 0.000000
vt 0.000000 0.750000
vt 0.125000 0.750000
vt 0.000000 0.000000
vt 0.125000 0.000000
vt 0.000000 0.000000
vt 0.142857 0.000000
vt 0.000000 1.000000
vt 0.125000 0.000000
vt 0.250000 0.000000
vt 0.142857 1.000000
vt 0.125000 0.250000
vt 0.250000 0.250000
vt 0.125000 0.500000
vt 0.000000 0.166667
vt 0.000000 0.000000
vt 0.250000 0.500000
vt 1.000000 0.166667
vt 1.000000 0.000000
vt 0.166667 1.000000
vt 0.000000 1.000000
vt 0.125000 1.000000
vt 0.000000 1.000000
vt 0.166667 0.000000
vt 0.000000 0.000000
vt 0.000000 0.750000
vt 0.125000 0.750000
vt 0.000000 0.000000
vt 0.125000 0.000000
vt 0.000000 1.000000
vt 0.125000 0.000000
vt 0.250000 0.000000
vt 0.142857 1.000000
vt 0.125000 0.250000
vt 0.250000 0.250000
vt 0.125000 0.500000
vt 0.000000 0.166667
vt 0.250000 0.500000
vt 0.000000 0.000000
vt 1.000000 0.166667
vt 1.000000 0.000000
s 0
usemtl Material.002
f 2/4/1 3/5/1 1/1/1
f 1/2/2 6/8/2 2/3/2
f 5/7/3 8/10/3 6/8/3
f 12/16/4 9/11/4 10/12/4
f 14/18/1 11/14/1 12/15/1
f 14/18/2 15/19/2 13/17/2
f 18/24/1 15/20/1 16/21/1
f 21/29/3 20/28/3 19/25/3
f 24/32/2 19/26/2 20/27/2
f 26/34/1 23/31/1 24/32/1
f 9/11/4 28/38/4 10/12/4
f 27/36/3 30/40/3 28/37/3
f 30/40/2 31/41/2 32/43/2
f 31/42/3 34/46/3 32/44/3
f 2/4/1 4/6/1 3/5/1
f 1/2/2 5/7/2 6/8/2
f 5/7/3 7/9/3 8/10/3
f 12/16/4 11/13/4 9/11/4
f 14/18/1 13/17/1 11/14/1
f 14/18/2 16/22/2 15/19/2
f 18/24/1 17/23/1 15/20/1
f 21/29/3 22/30/3 20/28/3
f 24/32/2 23/31/2 19/26/2
f 26/34/1 25/33/1 23/31/1
f 9/11/4 27/35/4 28/38/4
f 27/36/3 29/39/3 30/40/3
f 30/40/2 29/39/2 31/41/2
f 31/42/3 33/45/3 34/46/3
