# Blender 3.3.0
# www.blender.org
mtllib map1.mtl
o Cube
v 1.000000 0.799883 -17.906517
v 1.000000 -10.391155 -17.906517
v 1.000000 0.799883 -19.906517
v 1.000000 -10.391155 -19.906517
v -1.000000 0.799883 -17.906517
v -1.000000 -10.391155 -17.906517
v -1.000000 0.799883 -19.906517
v -1.000000 -10.391155 -19.906517
vn 1.0000 -0.0000 -0.0000
vn -0.0000 -0.0000 -1.0000
vn -1.0000 -0.0000 -0.0000
vn -0.0000 -0.0000 1.0000
vn -0.0000 1.0000 -0.0000
vn -0.0000 -1.0000 -0.0000
vt 0.375000 0.000000
vt 0.375000 1.000000
vt 0.125000 0.750000
vt 0.625000 0.000000
vt 0.625000 1.000000
vt 0.875000 0.750000
vt 0.125000 0.500000
vt 0.375000 0.250000
vt 0.625000 0.250000
vt 0.875000 0.500000
vt 0.375000 0.750000
vt 0.625000 0.750000
vt 0.375000 0.500000
vt 0.625000 0.500000
s 0
usemtl Material
f 2/4/1 3/8/1 1/1/1
f 4/9/2 7/13/2 3/8/2
f 8/14/3 5/11/3 7/13/3
f 6/12/4 1/2/4 5/11/4
f 7/13/5 1/3/5 3/7/5
f 4/10/6 6/12/6 8/14/6
f 2/4/1 4/9/1 3/8/1
f 4/9/2 8/14/2 7/13/2
f 8/14/3 6/12/3 5/11/3
f 6/12/4 2/5/4 1/2/4
f 7/13/5 5/11/5 1/3/5
f 4/10/6 2/6/6 6/12/6
o Plane
v 25.000000 0.000000 25.000000
v -25.000000 0.000000 25.000000
v 25.000000 0.000000 -25.000000
v -25.000000 0.000000 -25.000000
vn -0.0000 -1.0000 -0.0000
vt 0.000000 0.000000
vt 1.000000 0.000000
vt 0.000000 1.000000
vt 1.000000 1.000000
s 0
usemtl Material
f 10/16/7 11/17/7 9/15/7
f 10/16/7 12/18/7 11/17/7
o Cube.001
v 18.085022 0.799883 -3.978958
v 18.085022 -10.391155 -3.978958
v 18.085022 0.799883 -5.978958
v 18.085022 -10.391155 -5.978958
v 16.085022 0.799883 -3.978958
v 16.085022 -10.391155 -3.978958
v 16.085022 0.799883 -5.978958
v 16.085022 -10.391155 -5.978958
vn 1.0000 -0.0000 -0.0000
vn -0.0000 -0.0000 -1.0000
vn -1.0000 -0.0000 -0.0000
vn -0.0000 -0.0000 1.0000
vn -0.0000 1.0000 -0.0000
vn -0.0000 -1.0000 -0.0000
vt 0.375000 0.000000
vt 0.375000 1.000000
vt 0.125000 0.750000
vt 0.625000 0.000000
vt 0.625000 1.000000
vt 0.875000 0.750000
vt 0.125000 0.500000
vt 0.375000 0.250000
vt 0.625000 0.250000
vt 0.875000 0.500000
vt 0.375000 0.750000
vt 0.625000 0.750000
vt 0.375000 0.500000
vt 0.625000 0.500000
s 0
usemtl Material
f 14/22/8 15/26/8 13/19/8
f 16/27/9 19/31/9 15/26/9
f 20/32/10 17/29/10 19/31/10
f 18/30/11 13/20/11 17/29/11
f 19/31/12 13/21/12 15/25/12
f 16/28/13 18/30/13 20/32/13
f 14/22/8 16/27/8 15/26/8
f 16/27/9 20/32/9 19/31/9
f 20/32/10 18/30/10 17/29/10
f 18/30/11 14/23/11 13/20/11
f 19/31/12 17/29/12 13/21/12
f 16/28/13 14/24/13 18/30/13
