# Blender 3.3.0
# www.blender.org
mtllib map.mtl
o Cube.001
v 13.976892 4.000000 -8.920918
v 13.976892 -3.999999 -8.920918
v 21.536585 4.000000 -6.303461
v 21.536585 -4.000000 -6.303461
v 12.723622 4.000000 -6.908983
v 12.723622 -4.000000 -6.908983
v 18.023649 4.000000 -0.916514
v 18.023649 -4.000000 -0.916515
v 16.594349 4.000001 -16.480606
v 16.594349 -3.999998 -16.480606
v 24.154041 4.000000 -13.863149
v 24.154041 -3.999998 -13.863149
v 11.411798 -4.000000 -5.428823
v 13.653691 -4.000000 2.250625
v 13.653691 4.000000 2.250625
v 11.411798 4.000000 -5.428823
v 9.519904 -4.000000 -4.251717
v 10.741408 -4.000000 3.654478
v 10.741408 4.000000 3.654479
v 9.519904 4.000000 -4.251717
v 16.921532 4.000001 -17.425570
v 16.921532 -3.999998 -17.425570
v 24.481224 4.000000 -14.808115
v 24.481224 -3.999998 -14.808115
v 4.000000 4.000003 -18.000000
v 4.000000 -3.999997 -18.000000
v 4.000000 4.000003 -26.000000
v 4.000000 -3.999997 -26.000000
v -4.000000 4.000005 -18.000000
v -4.000000 -3.999995 -18.000000
v -4.000000 4.000005 -26.000000
v -4.000000 -3.999995 -26.000000
v 4.000000 -3.999997 -34.000000
v 4.000000 4.000003 -34.000000
v -4.000000 4.000006 -34.000000
v -4.000000 -3.999993 -34.000000
v 4.000000 4.000000 -10.000000
v 4.000000 -4.000000 -10.000000
v -4.000000 -3.999998 -10.000000
v -4.000000 4.000002 -10.000000
v 4.000000 -3.999997 -35.000000
v 4.000000 4.000003 -35.000000
v -4.000000 4.000006 -35.000000
v -4.000000 -3.999993 -35.000000
v 4.000000 4.000000 -9.000000
v 4.000000 -4.000000 -9.000000
v -4.000000 -3.999998 -9.000000
v -4.000000 4.000002 -9.000000
v 4.000000 3.999999 4.000000
v 4.000000 -4.000001 4.000000
v 4.000000 3.999999 -4.000000
v 4.000000 -4.000001 -4.000000
v -4.000000 4.000001 4.000000
v -4.000000 -3.999999 4.000000
v -4.000000 4.000001 -4.000000
v -4.000000 -3.999999 -4.000000
v 4.000000 -4.000000 -8.000000
v 4.000000 3.999999 -8.000000
v -4.000000 4.000002 -8.000000
v -4.000000 -3.999999 -8.000000
v -8.000000 -3.999997 -4.000000
v -8.000000 4.000002 -4.000000
v -8.000000 4.000002 4.000000
v -8.000000 -3.999998 4.000000
v 4.000000 3.999999 8.000000
v 4.000000 -4.000002 8.000000
v -4.000000 -3.999999 8.000000
v -4.000000 4.000000 8.000000
v 8.000001 3.999998 -4.000000
v 8.000001 3.999997 4.000000
v 7.999999 -4.000002 4.000000
v 7.999999 -4.000002 -4.000000
v 3.999996 -12.447701 35.236809
v 3.999992 -20.447702 35.236809
v -4.000008 -20.447699 35.236809
v -4.000004 -12.447700 35.236809
v -9.000000 -3.999997 -4.000000
v -9.000000 4.000003 -4.000000
v -9.000000 4.000003 4.000000
v -9.000000 -3.999997 4.000000
v 4.000000 -4.000000 -9.000000
v 4.000000 4.000000 -9.000000
v -4.000000 4.000002 -9.000000
v -4.000000 -3.999998 -9.000000
v 9.519905 3.999997 -4.251717
v 10.741409 3.999997 3.654479
v 10.741407 -4.000003 3.654478
v 9.519903 -4.000003 -4.251717
v 3.999996 -12.447705 89.994980
v 23.999987 -40.447701 35.236809
v -24.000015 -40.447685 35.236809
v -24.000004 -12.447697 89.994980
v -24.000008 -20.447693 35.236809
v -24.000004 -12.447693 35.236809
v 23.999996 -12.447708 35.236809
v 23.999994 -20.447708 35.236809
v 3.999987 -40.447693 35.236809
v -4.000013 -40.447693 35.236809
v -4.000004 -12.447703 89.994980
v 23.999996 -12.447712 89.994980
v -25.000000 -4.000000 4.000000
v -25.000000 4.000000 4.000000
v -25.000000 -4.000000 -4.000000
v -25.000000 4.000000 -4.000000
v -17.000000 -4.000000 4.000000
v -17.000000 4.000000 4.000000
v -17.000000 -4.000000 -4.000000
v -17.000000 4.000000 -4.000000
v -33.000000 -4.000000 -4.000000
v -33.000000 -4.000000 4.000000
v -33.000000 4.000000 4.000000
v -33.000000 4.000000 -4.000000
v -9.000000 4.000000 -4.000000
v -9.000000 -4.000000 -4.000000
v -9.000000 -4.000000 4.000000
v -9.000000 4.000000 4.000000
v -25.000000 4.000000 -12.000000
v -25.000000 -4.000000 -12.000000
v -33.000000 4.000000 -12.000000
v -33.000000 -4.000000 -12.000000
v -25.000000 4.000002 -20.000000
v -25.000000 -3.999998 -20.000000
v -33.000000 4.000002 -20.000000
v -33.000000 -3.999998 -20.000000
v -24.000015 -40.447689 89.765533
v -24.000008 -20.447695 89.765533
v 3.999996 -10.447705 89.994980
v -24.000004 -10.447697 89.994980
v -4.000004 -10.447703 89.994980
v 23.999996 -10.447712 89.994980
v 3.999996 -10.447705 93.994980
v -24.000004 -10.447697 93.994980
v -4.000004 -10.447703 93.994980
v 23.999996 -10.447712 93.994980
v 3.999996 -12.447705 93.994980
v -24.000004 -12.447697 93.994980
v -4.000004 -12.447703 93.994980
v 23.999996 -12.447712 93.994980
v 3.999996 -12.447706 110.964333
v -24.000004 -12.447698 110.964333
v -4.000004 -12.447704 110.964333
v 23.999996 -12.447713 110.964333
vn -0.0000 -1.0000 -0.0000
vn -0.0000 -0.0000 1.0000
vn -0.0000 -0.0000 -1.0000
vn -0.8376 -0.0000 -0.5462
vn -0.5868 -0.0000 -0.8097
vn -0.9450 -0.0000 -0.3272
vn 0.8488 -0.0000 0.5287
vn 0.9450 -0.0000 0.3272
vn 0.7484 -0.0000 0.6633
vn -0.4342 -0.0000 -0.9008
vn 0.5283 -0.0000 0.8491
vn -0.3272 -0.0000 0.9450
vn -1.0000 -0.0000 -0.0000
vn 1.0000 -0.0000 -0.0000
vn 0.1634 -0.0000 0.9866
vn -0.1250 -0.0000 -0.9922
vn -0.0000 1.0000 -0.0000
vn -0.0000 0.8560 0.5169
vn -0.0000 -0.8560 -0.5169
vt 0.500000 0.999929
vt 0.000100 0.000100
vt 0.500000 0.000071
vt 0.000100 0.999900
vt 0.999900 0.999900
vt 0.999900 0.999900
vt 0.000100 0.999900
vt 0.999900 0.000100
vt 0.999900 0.999900
vt 0.999900 0.000100
vt 0.000100 0.000100
vt 0.148234 0.000123
vt 0.506972 0.999929
vt 0.999900 0.000100
vt 0.158025 0.000040
vt 0.148234 0.999877
vt 0.999900 0.999900
vt 0.000100 0.999900
vt 0.000071 0.294323
vt 0.999900 0.999900
vt 0.000100 0.000100
vt 0.999900 0.000100
vt 0.000100 0.999900
vt 0.000025 0.000025
vt 0.000100 0.999900
vt 0.000071 0.000071
vt 0.999965 0.000035
vt 0.000100 0.999900
vt 0.437506 1.124938
vt 0.000100 0.000100
vt 0.999900 0.999900
vt 0.999965 0.000035
vt 0.000100 0.999900
vt 0.437506 -0.874862
vt 0.000100 0.000100
vt 0.271817 0.999877
vt 0.000025 0.000025
vt 0.999900 0.000100
vt 0.000100 0.000100
vt 0.999965 0.000035
vt 0.000045 0.999955
vt 0.000055 0.177287
vt 0.506972 0.000071
vt 0.158025 0.999960
vt 0.271817 0.000123
vt 0.307559 0.999945
vt 0.197669 0.000044
vt 0.000040 0.145581
vt 0.411044 0.999877
vt 0.000035 0.125027
vt 0.202089 0.000045
vt 0.999965 0.125027
vt 0.202089 0.999955
vt 0.307559 0.000055
vt 0.197669 0.999956
vt 0.411044 0.000123
vt 0.000044 0.144209
vt 0.500000 0.999929
vt 0.062522 0.000025
vt 0.000035 0.125027
vt 0.500000 0.000071
vt 0.062522 0.999975
vt 0.999965 0.125027
vt 0.000071 0.999929
vt 0.562494 1.124938
vt 0.999965 0.125027
vt 0.000071 0.000071
vt 0.562494 -0.874862
vt 0.000035 0.125027
vt 1.833246 0.178731
vt 0.000100 0.999900
vt 0.999900 0.000100
vt 1.833246 0.992869
vt 0.000100 0.999900
vt 0.000100 0.000100
vt 3.461526 0.178731
vt 0.999900 0.999900
vt 3.461526 0.992869
vt 0.000100 0.000100
vt 4.455460 0.997182
vt 0.000100 0.000100
vt 4.455460 2.045711
vt 0.999900 0.000100
vt 0.999900 0.999900
vt 2.358395 0.997182
vt 0.000100 0.999900
vt 0.999900 0.000100
vt 2.358395 2.045711
vt 0.999900 0.000100
vt 0.000100 0.999900
vt 5.089797 0.992869
vt 0.875000 0.500000
vt 0.999900 0.000100
vt 5.089797 0.178731
vt 0.375000 0.250000
vt 0.999900 0.000100
vt 0.261343 0.997182
vt 1.019110 -2.467217
vt 0.375000 0.500000
vt 0.000100 0.000100
vt 1.833248 -2.467217
vt 0.261343 2.045711
vt 0.625000 0.500000
vt 0.999900 0.999900
vt 0.204975 0.178731
vt 0.999900 0.999900
vt 0.999965 0.000035
vt 0.204975 0.992869
vt 0.125027 0.000035
vt 0.000100 0.999900
vt 6.552512 2.045711
vt 0.125027 0.999965
vt 0.999900 0.999900
vt 6.552512 0.997182
vt 0.000035 0.000036
vt 0.000100 0.999900
vt 5.293331 0.992869
vt 0.500000 0.000071
vt 0.875000 0.500000
vt 5.293331 0.178731
vt 0.500000 0.999929
vt 0.375000 0.250000
vt 1.019110 -2.263682
vt 0.000071 0.999929
vt 0.375000 0.500000
vt 1.833248 -2.263682
vt 0.000071 0.000071
vt 0.625000 0.500000
vt 0.001440 0.178731
vt 0.999965 0.125027
vt 0.001440 0.992869
vt 0.000036 0.000035
vt 6.814645 2.045711
vt 0.000035 0.999965
vt 6.814645 0.997182
vt 0.000035 0.125027
vt 1.019110 -2.263680
vt 2.036771 -0.635406
vt 0.500000 0.000071
vt 0.999929 0.000071
vt 0.999929 0.500000
vt 0.000100 0.999900
vt 2.036771 0.178732
vt 1.019110 -1.449542
vt 0.999929 0.000071
vt 0.000071 0.000071
vt 0.875000 0.750000
vt 0.001440 -1.449543
vt 0.250025 0.000050
vt 0.200027 0.000045
vt 0.500000 0.999929
vt 0.999900 0.999900
vt 0.000071 0.000071
vt 0.250025 0.999950
vt 0.001440 -0.635406
vt 0.999929 0.000071
vt 0.875000 0.500000
vt 0.000071 0.000071
vt 1.019116 -0.635407
vt 0.001440 -3.077817
vt 0.293250 0.125004
vt 0.999929 0.000071
vt 0.000071 0.000071
vt 1.019116 0.178731
vt 0.001440 -2.263679
vt 0.999929 0.000071
vt 0.625000 0.750000
vt 0.000071 0.000071
vt 0.001440 -2.263679
vt 1.309876 -0.051347
vt 0.999900 0.000100
vt 0.000071 0.000071
vt 1.309876 0.997182
vt 0.001440 -1.449541
vt 0.200027 0.000045
vt 0.625000 0.500000
vt 0.999929 0.000071
vt 0.000071 0.000071
vt 0.815581 -0.635406
vt 0.000035 0.000035
vt 0.999929 0.500000
vt 0.815581 -1.449543
vt 0.000071 0.500000
vt 0.000036 0.999965
vt 0.261343 -0.051347
vt 0.000035 0.000035
vt 0.999929 0.500000
vt 0.261343 0.997182
vt 0.000071 0.500000
vt 0.000036 0.999965
vt 0.061560 0.999975
vt 0.000045 0.200027
vt 0.815576 -1.449542
vt 0.625000 0.500000
vt 0.999929 0.500000
vt 0.815576 -2.263680
vt 0.000025 0.015409
vt 0.200027 0.999955
vt 0.000071 0.500000
vt 0.375000 0.500000
vt 0.069877 0.144559
vt -0.057032 0.882986
vt 0.375000 0.750000
vt 0.999929 0.500000
vt 0.204975 0.178731
vt -0.057032 0.068848
vt 0.089431 1.038050
vt 0.625000 0.750000
vt 0.000071 0.500000
vt 1.578338 -1.287450
vt 1.222631 -0.635406
vt 0.251432 0.000000
vt 0.999929 0.500000
vt 1.222631 0.178732
vt 1.557206 -0.031348
vt 0.000071 0.500000
vt 0.251432 1.000000
vt 0.815581 -2.263680
vt 0.820360 0.994238
vt 0.000000 1.000000
vt 0.999929 0.500000
vt 0.824394 1.899614
vt 0.815581 -3.077817
vt 0.000071 0.500000
vt 0.000000 0.000000
vt 0.000045 0.200027
vt 0.000071 0.999929
vt 0.000042 0.062354
vt 0.000071 0.000071
vt 1.833246 -2.263680
vt 0.172741 0.999959
vt 0.999929 0.000071
vt 0.313883 0.000056
vt 1.833246 -1.449542
vt 0.875000 0.750000
vt 0.999929 0.500000
vt 0.000050 0.999950
vt 0.000031 0.000031
vt 0.200027 0.999955
vt 0.875000 0.500000
vt 0.000071 0.500000
vt 1.000000 0.000000
vt 1.000000 0.400000
vt -0.603373 1.151150
vt 0.251432 1.000000
vt 0.000000 0.416667
vt -0.624506 2.407253
vt 0.251432 0.000000
vt 0.166667 0.416667
vt -0.729157 -0.839713
vt 0.000000 0.000000
vt 0.166667 0.583333
vt 1.000000 1.000000
vt 1.000000 0.000000
vt -0.725123 0.065664
vt 0.000000 0.583333
vt 0.000000 1.000000
vt 1.019110 -1.449542
vt 0.625000 0.500000
vt 0.061560 0.000025
vt 1.019110 -2.263680
vt 0.375000 0.500000
vt 0.146503 0.882986
vt 0.375000 0.750000
vt 0.146503 0.068848
vt 0.625000 0.750000
vt 1.019105 -0.635406
vt 0.125027 0.000035
vt 1.019105 -1.449543
vt 0.125027 0.999965
vt -0.000790 -0.051347
vt 0.125027 0.000035
vt -0.000790 0.997182
vt 0.125027 0.999965
vt 0.096313 0.999969
vt 0.172741 0.000042
vt 0.313883 0.999944
vt 2.036781 -2.263680
vt 0.000056 0.099729
vt 2.036781 -1.449542
vt 0.875000 0.750000
vt 0.096313 0.000031
vt 0.875000 0.500000
vt 1.000000 1.000000
vt 0.000000 0.400000
vt 0.583333 0.000000
vt 0.583333 1.000000
vt 0.000000 0.000000
vt 0.166667 1.000000
vt 0.000000 1.000000
vt 0.000000 0.000000
vt 0.166667 0.000000
vt 0.583333 0.416667
vt 0.583333 0.583333
vt 0.000000 0.000000
vt 1.000000 0.000000
vt 0.000000 1.000000
vt 0.658869 -0.317667
vt 0.158940 -0.317668
vt 0.000100 0.999900
vt 0.158940 0.682191
vt 0.658869 0.682191
vt 0.999900 0.999900
vt 0.500000 0.000071
vt 0.500000 0.999929
vt 0.000100 0.000100
vt 0.999900 0.999900
vt 0.500000 0.000071
vt 0.500000 0.999929
vt 0.999900 0.000100
vt 0.000100 0.999900
vt 0.999900 0.999900
vt 0.658870 -0.317668
vt 0.658870 0.682191
vt 0.999900 0.000100
vt 0.999900 0.999900
vt 0.658870 -0.317668
vt 0.658870 0.682191
vt 0.000100 0.999900
vt 0.999900 0.999900
vt 0.500000 0.000071
vt 0.000071 0.000071
vt 0.999900 0.999900
vt 0.999900 0.000100
vt 0.000071 0.999929
vt 0.500000 0.999929
vt 0.000100 0.000100
vt 0.999900 0.000100
vt 0.000071 0.999929
vt 0.500000 0.999929
vt 0.999900 0.000100
vt 0.000071 0.999929
vt 0.158940 -0.317667
vt 0.000100 0.000100
vt 0.000071 0.000071
vt 0.158940 0.682191
vt 0.999900 0.000100
vt 0.500000 0.000071
vt 0.999900 0.000100
vt 0.000071 0.000071
vt 0.000071 0.999929
vt 0.000100 0.000100
vt 0.000071 0.000071
vt 0.000100 0.999900
vt 0.158940 0.682190
vt 0.000100 0.000100
vt 0.158940 -0.317668
vt 0.000100 0.999900
vt 0.500000 0.000071
vt 0.000071 0.000071
vt 0.000100 0.999900
vt 0.999900 0.999900
vt 0.500000 0.999929
vt 0.000100 0.000100
vt 0.000071 0.999929
vt 0.500000 0.000071
vt 0.999900 0.000100
vt 0.000100 0.000100
vt 0.000071 0.999929
vt 0.500000 0.999929
vt 0.999900 0.999900
vt 0.999900 0.000100
vt 0.500000 0.000071
vt 0.000071 0.000071
vt 0.000100 0.999900
vt 0.500000 0.999929
vt 0.000071 0.999929
vt 0.500000 0.000071
vt 0.000100 0.000100
vt 0.500000 0.999929
vt 0.000071 0.999929
vt 0.999900 0.999900
vt 0.583333 1.000000
vt 0.166667 1.000000
vt 1.000000 1.000000
vt 0.000000 0.400000
vt 0.000000 0.000000
vt 0.000000 0.000000
vt 1.000000 0.000000
vt 0.000000 1.000000
vt 1.000000 1.000000
vt 0.000000 0.400000
vt 0.000000 0.000000
vt 0.000000 0.000000
vt 1.000000 0.000000
vt 0.000000 1.000000
vt 1.000000 1.000000
vt 0.000000 0.400000
vt 0.000000 0.000000
vt 0.000000 0.000000
vt 1.000000 0.000000
vt 0.000000 1.000000
vt 1.000000 1.000000
vt 0.000000 0.400000
vt 0.000000 0.000000
vt 1.000000 0.000000
vt 0.000000 0.000000
vt 0.000000 1.000000
s 0
usemtl grass
f 73/242/1 95/291/1 100/297/1
f 94/290/1 76/253/1 99/296/1
f 73/243/1 99/295/1 76/254/1
f 73/242/1 100/297/1 89/284/1
f 94/290/1 99/296/1 92/288/1
f 73/243/1 89/285/1 99/295/1
f 92/288/2 129/379/2 128/377/2
f 89/284/2 130/380/2 127/375/2
f 89/285/2 129/378/2 99/295/2
f 129/379/1 132/383/1 128/377/1
f 130/380/1 131/381/1 127/375/1
f 127/376/1 133/384/1 129/378/1
f 133/385/3 136/389/3 132/383/3
f 134/386/3 135/387/3 131/381/3
f 131/382/3 137/390/3 133/384/3
f 137/391/1 140/395/1 136/389/1
f 138/392/1 139/393/1 135/387/1
f 135/388/1 141/397/1 137/390/1
f 92/288/2 99/296/2 129/379/2
f 89/284/2 100/297/2 130/380/2
f 89/285/2 127/376/2 129/378/2
f 129/379/1 133/385/1 132/383/1
f 130/380/1 134/386/1 131/381/1
f 127/376/1 131/382/1 133/384/1
f 133/385/3 137/391/3 136/389/3
f 134/386/3 138/392/3 135/387/3
f 131/382/3 135/388/3 137/390/3
f 137/391/1 141/396/1 140/395/1
f 138/392/1 142/398/1 139/393/1
f 135/388/1 139/394/1 141/397/1
usemtl brick
f 8/21/4 3/6/4 4/10/4
f 14/39/5 7/20/5 8/22/5
f 11/30/6 4/9/6 3/8/6
f 2/4/7 5/12/7 6/16/7
f 10/26/8 1/1/8 2/3/8
f 16/45/9 6/16/9 5/12/9
f 18/51/10 15/41/10 14/39/10
f 20/56/11 13/36/11 16/45/11
f 24/67/12 21/58/12 22/61/12
f 23/65/6 12/34/6 11/29/6
f 22/62/8 9/24/8 10/28/8
f 27/76/13 26/73/13 25/70/13
f 29/80/14 32/88/14 31/85/14
f 38/108/13 25/70/13 26/73/13
f 34/94/13 28/78/13 27/76/13
f 36/102/14 31/85/14 32/88/14
f 40/114/14 30/82/14 29/80/14
f 42/120/13 33/91/13 34/94/13
f 44/126/14 35/98/14 36/101/14
f 48/135/14 39/111/14 40/114/14
f 46/131/13 37/105/13 38/108/13
f 64/205/3 53/159/3 54/164/3
f 58/182/13 52/155/13 51/148/13
f 60/188/14 55/170/14 56/173/14
f 62/196/2 56/174/2 55/169/2
f 68/223/14 54/165/14 53/160/14
f 66/214/13 49/138/13 50/143/13
f 72/237/2 51/149/2 52/154/2
f 70/230/3 50/144/3 49/137/3
f 76/255/14 67/219/14 68/222/14
f 66/215/13 73/244/13 65/210/13
f 78/260/2 61/191/2 62/197/2
f 80/265/3 63/202/3 64/206/3
f 82/269/13 57/179/13 58/182/13
f 84/273/14 59/185/14 60/188/14
f 88/282/15 69/227/15 72/238/15
f 86/278/16 71/234/16 70/230/16
f 27/76/13 28/78/13 26/73/13
f 29/80/14 30/82/14 32/88/14
f 38/108/13 37/105/13 25/70/13
f 34/94/13 33/91/13 28/78/13
f 36/102/14 35/97/14 31/85/14
f 40/114/14 39/111/14 30/82/14
f 42/120/13 41/117/13 33/91/13
f 44/126/14 43/123/14 35/98/14
f 48/135/14 47/133/14 39/111/14
f 46/131/13 45/129/13 37/105/13
f 64/207/3 63/201/3 53/161/3
f 58/182/13 57/179/13 52/155/13
f 60/188/14 59/185/14 55/170/14
f 62/198/2 61/192/2 56/175/2
f 68/223/14 67/218/14 54/165/14
f 66/214/13 65/211/13 49/138/13
f 72/239/2 69/226/2 51/150/2
f 70/230/3 71/234/3 50/144/3
f 76/255/14 75/250/14 67/219/14
f 66/215/13 74/247/13 73/244/13
f 78/261/2 77/258/2 61/193/2
f 80/265/3 79/263/3 63/202/3
f 82/269/13 81/267/13 57/179/13
f 84/273/14 83/271/14 59/185/14
f 88/282/15 85/275/15 69/227/15
f 86/278/16 87/280/16 71/234/16
f 42/121/2 44/127/2 41/118/2
f 107/322/2 104/309/2 103/304/2
f 101/299/3 106/318/3 105/313/3
f 109/330/14 111/335/14 110/332/14
f 110/333/3 102/302/3 101/298/3
f 114/343/2 108/326/2 107/321/2
f 116/347/3 105/314/3 106/317/3
f 124/370/14 119/358/14 120/359/14
f 117/350/13 103/305/13 104/308/13
f 120/360/14 112/340/14 109/329/14
f 123/369/2 122/366/2 121/363/2
f 121/364/13 118/353/13 117/349/13
f 8/21/4 7/18/4 3/6/4
f 14/39/5 15/41/5 7/20/5
f 11/30/6 12/33/6 4/9/6
f 2/4/7 1/2/7 5/12/7
f 10/26/8 9/25/8 1/1/8
f 16/45/9 13/36/9 6/16/9
f 18/51/10 19/53/10 15/41/10
f 20/56/11 17/49/11 13/36/11
f 24/67/12 23/64/12 21/58/12
f 23/65/6 24/68/6 12/34/6
f 22/62/8 21/59/8 9/24/8
f 42/121/2 43/124/2 44/127/2
f 107/322/2 108/325/2 104/309/2
f 101/299/3 102/301/3 106/318/3
f 109/330/14 112/338/14 111/335/14
f 110/333/3 111/336/3 102/302/3
f 114/343/2 113/341/2 108/326/2
f 116/347/3 115/345/3 105/314/3
f 124/370/14 123/368/14 119/358/14
f 117/350/13 118/355/13 103/305/13
f 120/360/14 119/356/14 112/340/14
f 123/369/2 124/371/2 122/366/2
f 121/364/13 122/367/13 118/353/13
usemtl Material.001
f 3/7/1 5/14/1 1/2/1
f 8/22/17 2/4/17 6/17/17
f 24/69/17 10/27/17 12/35/17
f 12/35/17 2/5/17 4/10/17
f 9/25/1 3/8/1 1/2/1
f 19/54/1 16/46/1 15/42/1
f 13/38/17 8/23/17 6/17/17
f 15/43/1 5/13/1 7/19/1
f 17/50/17 14/40/17 13/37/17
f 21/60/1 11/32/1 9/24/1
f 30/84/17 28/79/17 32/89/17
f 41/119/17 36/103/17 33/92/17
f 33/93/17 32/90/17 28/79/17
f 47/134/17 38/109/17 39/112/17
f 39/113/17 26/75/17 30/83/17
f 34/95/1 43/125/1 42/122/1
f 31/86/1 34/96/1 27/77/1
f 25/71/1 31/87/1 27/77/1
f 37/107/1 48/136/1 40/115/1
f 40/116/1 25/72/1 37/106/1
f 69/227/1 49/139/1 51/151/1
f 57/181/17 56/178/17 52/156/17
f 67/221/17 50/146/17 54/166/17
f 49/142/1 55/171/1 51/152/1
f 54/167/17 52/157/17 56/176/17
f 81/268/17 60/190/17 57/180/17
f 59/187/1 51/153/1 55/171/1
f 77/259/17 64/208/17 61/194/17
f 63/204/1 55/172/1 53/162/1
f 61/195/17 54/168/17 56/177/17
f 75/251/18 66/217/18 67/220/18
f 65/213/1 53/163/1 49/140/1
f 87/281/17 72/240/17 71/235/17
f 71/236/17 52/158/17 50/145/17
f 73/245/19 68/225/19 65/212/19
f 79/264/1 62/200/1 63/203/1
f 83/272/1 58/184/1 59/186/1
f 85/276/1 70/231/1 69/228/1
f 74/249/2 97/293/2 90/286/2
f 93/289/2 91/287/2 98/294/2
f 75/252/2 76/256/2 94/290/2
f 73/246/2 74/249/2 96/292/2
f 74/249/2 75/252/2 98/294/2
f 30/84/17 26/74/17 28/79/17
f 41/119/17 44/128/17 36/103/17
f 33/93/17 36/104/17 32/90/17
f 47/134/17 46/132/17 38/109/17
f 39/113/17 38/110/17 26/75/17
f 34/95/1 35/99/1 43/125/1
f 31/86/1 35/100/1 34/96/1
f 25/71/1 29/81/1 31/87/1
f 37/107/1 45/130/1 48/136/1
f 40/116/1 29/81/1 25/72/1
f 69/229/1 70/232/1 49/141/1
f 57/181/17 60/189/17 56/178/17
f 67/221/17 66/216/17 50/146/17
f 49/142/1 53/163/1 55/171/1
f 54/167/17 50/147/17 52/157/17
f 81/268/17 84/274/17 60/190/17
f 59/187/1 58/183/1 51/153/1
f 77/259/17 80/266/17 64/208/17
f 63/204/1 62/199/1 55/172/1
f 61/195/17 64/209/17 54/168/17
f 75/251/18 74/248/18 66/217/18
f 65/213/1 68/224/1 53/163/1
f 87/281/17 88/283/17 72/240/17
f 71/236/17 72/241/17 52/158/17
f 73/245/19 76/257/19 68/225/19
f 79/264/1 78/262/1 62/200/1
f 83/272/1 82/270/1 58/184/1
f 85/277/1 86/279/1 70/233/1
f 74/249/2 90/286/2 96/292/2
f 93/289/2 98/294/2 75/252/2
f 75/252/2 94/290/2 93/289/2
f 73/246/2 96/292/2 95/291/2
f 74/249/2 98/294/2 97/293/2
f 118/355/17 109/331/17 103/306/17
f 115/346/17 107/323/17 105/315/17
f 101/300/17 107/324/17 103/306/17
f 106/319/1 104/310/1 108/327/1
f 111/337/1 104/311/1 102/303/1
f 109/331/17 101/300/17 103/307/17
f 113/342/1 106/320/1 108/328/1
f 119/358/1 104/312/1 112/339/1
f 122/367/17 120/362/17 118/354/17
f 123/369/1 117/352/1 119/357/1
f 3/7/1 7/20/1 5/14/1
f 8/22/17 4/11/17 2/4/17
f 24/69/17 22/63/17 10/27/17
f 12/35/17 10/28/17 2/5/17
f 9/25/1 11/31/1 3/8/1
f 19/55/1 20/57/1 16/47/1
f 13/38/17 14/39/17 8/23/17
f 15/44/1 16/48/1 5/15/1
f 17/50/17 18/52/17 14/40/17
f 21/60/1 23/66/1 11/32/1
f 118/355/17 120/361/17 109/331/17
f 115/346/17 114/344/17 107/323/17
f 101/300/17 105/316/17 107/324/17
f 106/319/1 102/303/1 104/310/1
f 111/337/1 112/340/1 104/311/1
f 109/331/17 110/334/17 101/300/17
f 113/342/1 116/348/1 106/320/1
f 119/358/1 117/351/1 104/312/1
f 122/367/17 124/372/17 120/362/17
f 123/369/1 121/365/1 117/352/1
f 93/289/14 125/373/14 91/287/14
f 94/290/14 126/374/14 93/289/14
f 93/289/14 126/374/14 125/373/14
f 94/290/14 92/288/14 126/374/14
