# Blender 3.3.0
# www.blender.org
mtllib sphere.mtl
o Cube
v 0.699097 0.642639 0.594519
v 0.694243 -0.841242 0.531407
v 0.457237 0.460502 -0.689393
v 0.513841 -0.857932 -0.709772
v 0.000000 0.512404 -0.805409
v 0.000000 -1.000000 -0.855493
v 0.000000 0.865727 1.087185
v 0.000000 -1.000000 0.781189
v 0.719982 -0.232877 0.711014
v 0.622225 -0.232877 -0.785857
v 0.000000 -0.232877 1.115641
v 0.000000 -0.232877 -1.152481
v 0.706079 0.453453 -0.047437
v 0.675605 -0.926020 -0.021040
v 0.000000 -1.173728 -0.037152
v 0.000000 0.677838 0.067967
v 0.914602 -0.406605 0.000000
v 0.778637 -0.593096 0.561367
v 0.419684 -0.948360 0.791530
v 0.000000 -0.616438 1.194642
v 0.349549 0.754183 0.840852
v 0.720191 -0.604767 0.750166
v 0.347229 -0.232877 0.943350
v 0.347334 -0.610603 0.909305
v 0.348248 -0.303581 1.036841
v 0.583562 -0.318976 1.038692
v 0.583562 -0.551177 1.036841
v 0.348248 -0.555353 1.036841
v 0.732802 -0.188565 0.709313
v 0.000000 -0.162472 1.194325
v 0.309412 -0.175519 0.999005
v 0.210248 0.798635 0.939019
v 0.239870 -0.612928 0.973348
v 0.239807 -0.232877 0.945751
v 0.420497 0.656667 0.384680
v 0.600435 -0.752971 0.848113
v 0.186107 -0.170320 1.076843
v 0.634255 -0.269788 0.874853
v 0.634360 -0.577972 0.893503
v 0.348091 -0.271220 0.986144
v 0.348360 -0.590801 0.974335
v 0.000000 -0.424658 1.155141
v 0.720086 -0.418822 0.730590
v 0.347281 -0.421740 0.926327
v 0.632707 -0.418112 1.037766
v 0.348248 -0.420200 1.036841
v 0.239839 -0.422903 0.935439
v 0.348208 -0.421250 0.978611
v 0.723871 -0.418467 0.884178
v 0.221768 -0.806784 0.981631
v 0.000000 -0.857038 1.068877
v 0.000000 0.771783 0.577576
v 0.524323 0.698411 0.717686
v 0.533606 -0.232877 0.827182
v 0.533762 -0.670966 0.829735
v 0.465905 -0.285047 1.037766
v 0.465905 -0.553265 1.036841
v 0.521107 -0.182042 0.854159
v 0.420153 -0.682950 0.910731
v 0.315372 0.727651 0.661850
v 0.491562 -0.643756 0.946765
v 0.491484 -0.258531 0.945951
v 0.490478 -0.419156 1.037303
v -0.699097 0.642639 0.594519
v -0.694243 -0.841242 0.531407
v -0.457237 0.460502 -0.689393
v -0.513841 -0.857932 -0.709772
v -0.719982 -0.232877 0.711014
v -0.622225 -0.232877 -0.785857
v -0.706079 0.453453 -0.047437
v -0.675605 -0.926020 -0.021040
v -0.914602 -0.406605 0.000000
v -0.778637 -0.593096 0.561367
v -0.419684 -0.948360 0.791530
v -0.349549 0.754183 0.840852
v -0.720191 -0.604767 0.750166
v -0.347229 -0.232877 0.943350
v -0.347334 -0.610603 0.909305
v -0.348248 -0.303581 1.036841
v -0.583562 -0.318976 1.038692
v -0.583562 -0.551177 1.036841
v -0.348248 -0.555353 1.036841
v -0.732802 -0.188565 0.709313
v -0.309412 -0.175519 0.999005
v -0.210248 0.798635 0.939019
v -0.239870 -0.612928 0.973348
v -0.239807 -0.232877 0.945751
v -0.420497 0.656667 0.384680
v -0.600435 -0.752971 0.848113
v -0.186107 -0.170320 1.076843
v -0.634255 -0.269788 0.874853
v -0.634360 -0.577972 0.893503
v -0.348091 -0.271220 0.986144
v -0.348360 -0.590801 0.974335
v -0.720086 -0.418822 0.730590
v -0.347281 -0.421740 0.926327
v -0.632707 -0.418112 1.037766
v -0.348248 -0.420200 1.036841
v -0.239839 -0.422903 0.935439
v -0.348208 -0.421250 0.978611
v -0.723871 -0.418467 0.884178
v -0.221768 -0.806784 0.981631
v -0.524323 0.698411 0.717686
v -0.533606 -0.232877 0.827182
v -0.533762 -0.670966 0.829735
v -0.465905 -0.285047 1.037766
v -0.465905 -0.553265 1.036841
v -0.521107 -0.182042 0.854159
v -0.420153 -0.682950 0.910731
v -0.315372 0.727651 0.661850
v -0.491562 -0.643756 0.946765
v -0.491484 -0.258531 0.945951
v -0.490478 -0.419156 1.037303
vn 0.9023 -0.2028 -0.3805
vn 0.4573 -0.8812 0.1198
vn 0.2510 0.9292 -0.2711
vn 0.4985 -0.1894 -0.8460
vn 0.2678 0.4067 -0.8734
vn 0.5037 -0.3050 0.8082
vn 0.9007 0.2625 -0.3462
vn 0.9227 -0.2772 -0.2678
vn 0.2864 0.9528 -0.1005
vn 0.3128 -0.9291 -0.1972
vn 0.9074 -0.4189 0.0337
vn 0.8841 -0.3968 -0.2469
vn 0.1145 -0.9718 0.2063
vn 0.3414 -0.9364 0.0818
vn 0.1829 0.9668 -0.1782
vn 0.3423 -0.3392 -0.8762
vn 0.4936 0.2340 -0.8377
vn -1.0000 -0.0000 0.0007
vn 0.3676 -0.7718 0.5189
vn 0.9307 0.2091 -0.3000
vn 0.9494 0.2413 0.2009
vn 0.1568 0.9704 -0.1838
vn 0.3427 -0.9236 -0.1718
vn 0.9664 0.0528 0.2516
vn 0.9360 -0.3324 0.1163
vn 0.4131 -0.4219 0.8071
vn 0.9542 0.0318 0.2974
vn 0.6235 -0.6856 0.3758
vn 0.9045 -0.3389 0.2590
vn 0.4545 0.5300 0.7159
vn 0.0850 -0.0540 0.9949
vn 0.4981 -0.7876 0.3627
vn 0.0125 -0.7036 0.7104
vn -0.0079 0.9613 0.2754
vn 0.7538 0.4823 0.4463
vn 0.5340 0.1060 0.8388
vn 0.5629 0.1246 0.8171
vn 0.5336 0.1194 0.8373
vn 0.6672 0.1503 0.7296
vn 0.3313 0.0094 0.9435
vn 0.0162 -0.6908 0.7229
vn -0.9998 -0.0013 0.0177
vn 0.1643 0.9505 0.2636
vn 0.8569 0.5151 -0.0223
vn -0.0032 -0.0029 1.0000
vn -0.0032 -0.0040 1.0000
vn 0.7548 -0.3928 0.5254
vn -0.9998 -0.0019 0.0184
vn 0.6692 0.1499 0.7278
vn 0.8709 -0.3242 0.3693
vn 0.5018 0.1693 0.8482
vn -1.0000 -0.0009 0.0025
vn -0.0032 -0.0109 0.9999
vn 0.0775 -0.7593 0.6461
vn -0.0032 -0.0058 1.0000
vn 0.1939 0.9304 0.3111
vn 0.5623 0.1355 0.8157
vn 0.2444 0.9053 0.3474
vn 0.0154 -0.8697 0.4933
vn -0.2841 -0.9159 0.2834
vn 0.4460 0.4640 0.7653
vn 0.5252 -0.1196 0.8426
vn -0.9023 -0.2028 -0.3805
vn -0.4573 -0.8812 0.1198
vn -0.2510 0.9292 -0.2711
vn -0.4985 -0.1894 -0.8460
vn -0.2678 0.4067 -0.8734
vn -0.5082 -0.4033 0.7610
vn -0.9007 0.2625 -0.3462
vn -0.9227 -0.2772 -0.2678
vn -0.2864 0.9528 -0.1005
vn -0.3128 -0.9291 -0.1972
vn -0.9074 -0.4189 0.0337
vn -0.8841 -0.3968 -0.2469
vn -0.1145 -0.9718 0.2063
vn -0.3414 -0.9364 0.0818
vn -0.1829 0.9668 -0.1782
vn -0.3423 -0.3392 -0.8762
vn -0.4936 0.2340 -0.8377
vn 1.0000 -0.0009 -0.0013
vn -0.3629 -0.6944 0.6213
vn -0.9307 0.2091 -0.3000
vn -0.9494 0.2413 0.2009
vn -0.1568 0.9704 -0.1838
vn -0.3427 -0.9236 -0.1718
vn -0.9664 0.0528 0.2516
vn -0.9360 -0.3324 0.1163
vn -0.4131 -0.4219 0.8071
vn -0.9542 0.0318 0.2974
vn -0.8273 -0.4277 0.3643
vn -0.9045 -0.3389 0.2590
vn -0.4545 0.5300 0.7159
vn -0.0850 -0.0540 0.9949
vn -0.4577 -0.7834 0.4205
vn -0.4931 -0.8068 0.3256
vn 0.0079 0.9613 0.2754
vn -0.7538 0.4823 0.4463
vn -0.5917 0.0835 0.8018
vn -0.5957 0.1096 0.7957
vn -0.5941 0.0987 0.7983
vn -0.6672 0.1503 0.7296
vn -0.3313 0.0094 0.9435
vn -0.2847 -0.8146 0.5053
vn 0.9999 -0.0017 0.0163
vn -0.1643 0.9505 0.2636
vn -0.8802 0.0502 0.4719
vn 0.0032 -0.0029 1.0000
vn 0.0079 -0.0000 1.0000
vn -0.9997 -0.0020 -0.0246
vn 0.9998 -0.0019 0.0184
vn -0.6692 0.1499 0.7278
vn -0.7831 -0.4122 0.4657
vn -0.5018 0.1693 0.8482
vn 1.0000 -0.0009 0.0025
vn 0.0094 -0.0052 0.9999
vn -0.3536 -0.8377 0.4163
vn 0.0032 -0.0058 1.0000
vn -0.1939 0.9304 0.3111
vn -0.5973 0.1207 0.7929
vn -0.2444 0.9053 0.3474
vn 0.1340 -0.7179 0.6831
vn 0.2543 -0.9582 0.1311
vn -0.4460 0.4640 0.7653
vn -0.5343 -0.2900 0.7940
vn 0.5082 -0.4033 0.7610
vn 0.9992 0.0404 -0.0010
vn -1.0000 -0.0009 -0.0013
vn 0.3629 -0.6944 0.6213
vn 0.8273 -0.4277 0.3643
vn 0.2392 0.3934 0.8877
vn 0.0223 -0.0897 0.9957
vn 0.4577 -0.7834 0.4205
vn 0.4931 -0.8068 0.3256
vn -0.1357 0.8349 0.5334
vn 0.8304 0.4081 0.3794
vn 0.5917 0.0835 0.8018
vn 0.5957 0.1096 0.7957
vn 0.5941 0.0987 0.7983
vn 0.5775 -0.0441 0.8152
vn 0.6780 -0.0319 0.7344
vn 0.3469 -0.5425 0.7651
vn 1.0000 -0.0000 -0.0000
vn 0.2847 -0.8146 0.5053
vn -0.9999 -0.0017 0.0163
vn 0.1198 0.7406 0.6612
vn 0.8802 0.0502 0.4719
vn -0.0000 -0.0000 1.0000
vn -0.0079 -0.0000 1.0000
vn 0.9997 -0.0020 -0.0246
vn -0.9998 -0.0017 0.0177
vn 0.6677 0.1458 0.7300
vn 0.7831 -0.4122 0.4657
vn 0.0851 -0.0894 0.9924
vn -0.0094 -0.0052 0.9999
vn 0.3536 -0.8377 0.4163
vn 0.0001 -0.0035 1.0000
vn 0.2121 0.9370 0.2776
vn 0.5973 0.1207 0.7929
vn 0.2588 0.9064 0.3339
vn -0.1340 -0.7179 0.6831
vn -0.2543 -0.9582 0.1311
vn 0.4715 0.4891 0.7338
vn 0.5343 -0.2900 0.7940
vn -0.5037 -0.3050 0.8082
vn -0.9992 0.0404 -0.0010
vn 1.0000 -0.0000 0.0007
vn -0.3676 -0.7718 0.5189
vn -0.6235 -0.6856 0.3758
vn -0.2392 0.3934 0.8877
vn -0.0223 -0.0897 0.9957
vn -0.4981 -0.7876 0.3627
vn -0.0125 -0.7036 0.7104
vn 0.1357 0.8349 0.5334
vn -0.8304 0.4081 0.3794
vn -0.5340 0.1060 0.8388
vn -0.5629 0.1246 0.8171
vn -0.5336 0.1194 0.8373
vn -0.5775 -0.0441 0.8152
vn -0.6780 -0.0319 0.7344
vn -1.0000 -0.0000 -0.0000
vn -0.3469 -0.5425 0.7651
vn -0.0162 -0.6908 0.7229
vn 0.9998 -0.0013 0.0177
vn -0.1198 0.7406 0.6612
vn -0.8569 0.5151 -0.0223
vn 0.0032 -0.0040 1.0000
vn -0.7548 -0.3928 0.5254
vn 0.9998 -0.0017 0.0177
vn -0.6677 0.1458 0.7300
vn -0.8709 -0.3242 0.3693
vn -0.0851 -0.0894 0.9924
vn 0.0032 -0.0109 0.9999
vn -0.0775 -0.7593 0.6461
vn -0.0001 -0.0035 1.0000
vn -0.2121 0.9370 0.2776
vn -0.5623 0.1355 0.8157
vn -0.2588 0.9064 0.3339
vn -0.0154 -0.8697 0.4933
vn 0.2841 -0.9159 0.2834
vn -0.4715 0.4891 0.7338
vn -0.5252 -0.1196 0.8426
vt 0.125000 0.750000
vt 0.971841 0.996697
vt 0.375000 0.000000
vt 0.875000 0.750000
vt 0.011645 0.822519
vt 0.135453 0.193932
vt 0.625000 1.000000
vt 0.971841 0.125232
vt 0.692172 0.070913
vt 0.125000 0.500000
vt 0.110666 0.000000
vt 0.617772 0.676819
vt 0.085583 0.945637
vt 0.475635 0.000000
vt 0.250000 0.500000
vt 0.347242 1.000000
vt 0.356797 0.689443
vt 0.250000 0.750000
vt 0.300107 0.213509
vt 0.391576 0.995770
vt 0.234393 0.806068
vt 0.529110 0.000000
vt 0.692172 0.416882
vt 0.513606 0.018323
vt 0.000000 0.000000
vt 0.085452 0.692455
vt 0.347242 0.375420
vt 0.125000 0.625000
vt 0.896812 0.565752
vt 0.875000 0.625000
vt 0.000000 0.456033
vt 0.000000 0.623966
vt 0.347242 0.613471
vt 0.250000 0.625000
vt 0.315419 0.541505
vt 0.163431 0.873054
vt 0.234393 0.427203
vt 0.098260 0.223821
vt 0.812500 0.750000
vt 0.236166 0.000000
vt 0.041930 0.413633
vt 0.577055 0.875000
vt 0.187500 0.750000
vt 0.312500 0.375000
vt 0.056393 0.494110
vt 0.312681 0.622478
vt 0.577055 0.937500
vt 0.373821 0.684081
vt 0.264555 0.000000
vt 0.366854 0.411855
vt 0.577055 0.906250
vt 0.292836 0.680337
vt 0.555366 0.823728
vt 0.264555 0.000000
vt 0.457300 0.830142
vt 0.529110 0.000000
vt 0.577055 0.937500
vt 0.457303 0.926911
vt 0.577055 0.906250
vt 0.555366 0.928650
vt 0.419412 1.000000
vt 0.511085 0.000000
vt 0.029240 0.087721
vt 0.270163 0.043861
vt 0.287593 0.524443
vt 0.212407 0.750000
vt 0.284927 0.703395
vt 0.577055 0.893796
vt 0.276301 0.412909
vt 0.296908 0.685371
vt 0.159126 0.000000
vt 0.174814 0.700186
vt 0.091507 0.701238
vt 0.670883 0.862778
vt 0.174152 0.061340
vt 0.529110 0.000000
vt 0.577055 0.937500
vt 0.264555 0.000000
vt 0.577055 0.906250
vt 0.063073 0.552643
vt 0.145393 0.650089
vt 0.553082 0.468750
vt 0.420805 0.453125
vt 0.371853 0.548337
vt 0.436821 0.871458
vt 0.553082 0.468750
vt 0.555366 0.872328
vt 0.420805 0.453125
vt 0.295007 0.549940
vt 0.420805 0.453125
vt 0.553082 0.468750
vt 0.701468 0.808948
vt 0.165323 0.118849
vt 0.272427 0.069737
vt 0.250000 0.687500
vt 0.343750 0.187500
vt 0.156250 0.750000
vt 0.396832 0.000000
vt 0.577055 0.921875
vt 0.302759 0.651408
vt 0.506333 0.816004
vt 0.396832 0.000000
vt 0.506335 0.927781
vt 0.577055 0.921875
vt 0.390624 0.021930
vt 0.623969 0.878287
vt 0.188217 0.702317
vt 0.193611 0.725093
vt 0.577055 0.921875
vt 0.396832 0.000000
vt 0.496094 0.871893
vt 0.971841 0.996697
vt 0.375000 0.000000
vt 0.125000 0.750000
vt 0.875000 0.750000
vt 0.011645 0.822519
vt 0.135453 0.193932
vt 0.625000 1.000000
vt 0.971841 0.125232
vt 0.692172 0.070913
vt 0.125000 0.500000
vt 0.110666 0.000000
vt 0.617772 0.676819
vt 0.085583 0.945637
vt 0.391576 0.995770
vt 0.234393 0.806068
vt 0.529110 0.000000
vt 0.692172 0.416882
vt 0.513606 0.018323
vt 0.125000 0.625000
vt 0.896812 0.565752
vt 0.875000 0.625000
vt 0.000000 0.456033
vt 0.000000 0.623966
vt 0.315419 0.541505
vt 0.163431 0.873054
vt 0.234393 0.427203
vt 0.812500 0.750000
vt 0.098260 0.223821
vt 0.187500 0.750000
vt 0.312500 0.375000
vt 0.056393 0.494110
vt 0.312681 0.622478
vt 0.577055 0.937500
vt 0.373821 0.684081
vt 0.264555 0.000000
vt 0.366854 0.411855
vt 0.577055 0.906250
vt 0.292836 0.680337
vt 0.555366 0.823728
vt 0.264555 0.000000
vt 0.457300 0.830142
vt 0.529110 0.000000
vt 0.577055 0.937500
vt 0.457303 0.926911
vt 0.555366 0.928650
vt 0.577055 0.906250
vt 0.419412 1.000000
vt 0.511085 0.000000
vt 0.270163 0.043861
vt 0.287593 0.524443
vt 0.212407 0.750000
vt 0.284927 0.703395
vt 0.577055 0.893796
vt 0.276301 0.412909
vt 0.296908 0.685371
vt 0.159126 0.000000
vt 0.174814 0.700186
vt 0.091507 0.701238
vt 0.670883 0.862778
vt 0.174152 0.061340
vt 0.529110 0.000000
vt 0.577055 0.937500
vt 0.264555 0.000000
vt 0.577055 0.906250
vt 0.145393 0.650089
vt 0.553082 0.468750
vt 0.420805 0.453125
vt 0.371853 0.548337
vt 0.553082 0.468750
vt 0.436821 0.871458
vt 0.555366 0.872328
vt 0.420805 0.453125
vt 0.295007 0.549940
vt 0.420805 0.453125
vt 0.553082 0.468750
vt 0.701468 0.808948
vt 0.165323 0.118849
vt 0.343750 0.187500
vt 0.156250 0.750000
vt 0.396832 0.000000
vt 0.577055 0.921875
vt 0.302759 0.651408
vt 0.506333 0.816004
vt 0.396832 0.000000
vt 0.506335 0.927781
vt 0.577055 0.921875
vt 0.390624 0.021930
vt 0.623969 0.878287
vt 0.188217 0.702317
vt 0.193611 0.725093
vt 0.577055 0.921875
vt 0.396832 0.000000
vt 0.496094 0.871893
s 0
usemtl Material
f 17/35/1 4/11/1 10/24/1
f 14/30/2 2/4/2 19/39/2
f 35/72/3 13/28/3 16/34/3
f 4/12/4 12/27/4 10/23/4
f 3/9/5 12/27/5 5/14/5
f 58/105/6 23/49/6 54/98/6
f 13/29/7 10/24/7 3/8/7
f 13/29/8 29/61/8 9/20/8
f 3/10/9 16/34/9 13/28/9
f 4/13/10 15/33/10 6/16/10
f 2/5/11 14/31/11 17/35/11
f 17/35/12 14/31/12 4/11/12
f 8/19/13 15/33/13 19/38/13
f 15/33/14 14/32/14 19/38/14
f 60/108/15 21/43/15 53/97/15
f 4/12/16 6/17/16 12/27/16
f 3/9/17 10/23/17 12/27/17
f 48/90/18 28/59/18 46/88/18
f 37/75/19 11/25/19 34/71/19
f 13/29/20 17/35/20 10/24/20
f 9/20/21 17/35/21 13/29/21
f 3/10/22 5/15/22 16/34/22
f 4/13/23 14/32/23 15/33/23
f 17/35/24 9/20/24 18/36/24
f 18/36/25 2/5/25 17/35/25
f 20/40/26 51/94/26 50/93/26
f 18/37/27 43/81/27 22/45/27
f 2/7/28 36/74/28 19/39/28
f 2/6/29 18/37/29 22/45/29
f 36/73/30 55/100/30 59/107/30
f 44/84/31 34/70/31 47/89/31
f 55/99/32 39/77/32 61/109/32
f 61/109/33 27/57/33 57/104/33
f 40/78/34 56/102/34 62/110/34
f 38/76/35 45/86/35 49/91/35
f 32/65/36 30/63/36 37/75/36
f 53/96/37 31/64/37 58/105/37
f 21/44/38 37/75/38 31/64/38
f 47/89/39 11/26/39 42/80/39
f 50/92/40 36/74/40 33/68/40
f 31/64/41 34/71/41 23/49/41
f 52/95/15 32/66/15 60/108/15
f 44/83/42 41/79/42 48/90/42
f 23/49/43 62/110/43 54/98/43
f 43/82/44 38/76/44 49/91/44
f 46/87/45 57/103/45 63/111/45
f 56/101/46 46/87/46 63/111/46
f 22/47/47 49/91/47 39/77/47
f 44/83/48 40/78/48 23/49/48
f 33/69/49 42/80/49 20/41/49
f 39/77/50 45/86/50 27/57/50
f 24/50/51 47/89/51 33/69/51
f 48/90/52 25/54/52 40/78/52
f 26/55/53 63/111/53 45/85/53
f 50/93/54 8/19/54 19/38/54
f 63/111/55 27/58/55 45/85/55
f 54/98/56 38/76/56 9/22/56
f 52/95/15 35/72/15 16/34/15
f 1/3/57 58/105/57 29/62/57
f 62/110/58 26/56/58 38/76/58
f 41/79/59 57/104/59 28/59/59
f 24/51/60 61/109/60 41/79/60
f 59/107/61 24/52/61 33/67/61
f 35/72/15 53/97/15 1/1/15
f 29/62/62 54/98/62 9/22/62
f 72/135/63 69/129/63 67/122/63
f 71/132/64 74/138/64 65/115/64
f 70/130/65 88/168/65 16/34/65
f 67/123/66 69/128/66 12/27/66
f 66/120/67 5/14/67 12/27/67
f 108/198/68 77/146/68 84/160/68
f 70/131/69 66/119/69 69/129/69
f 83/158/70 70/131/70 68/125/70
f 66/121/71 70/130/71 16/34/71
f 67/124/72 6/16/72 15/33/72
f 65/116/73 72/135/73 71/133/73
f 72/135/74 67/122/74 71/133/74
f 8/19/75 74/139/75 15/33/75
f 15/33/76 74/139/76 71/134/76
f 110/201/77 75/140/77 85/162/77
f 67/123/78 12/27/78 6/17/78
f 66/120/79 12/27/79 69/128/79
f 100/185/80 82/157/80 94/175/80
f 90/171/81 11/25/81 30/63/81
f 70/131/82 69/129/82 72/135/82
f 68/125/83 70/131/83 72/135/83
f 66/121/84 16/34/84 5/15/84
f 67/124/85 15/33/85 71/134/85
f 72/135/86 73/136/86 68/125/86
f 73/136/87 72/135/87 65/116/87
f 20/40/88 102/188/88 51/94/88
f 73/137/89 95/176/89 68/126/89
f 65/118/90 89/170/90 76/144/90
f 65/117/91 76/142/91 73/137/91
f 105/193/92 89/169/92 109/200/92
f 87/166/93 96/179/93 99/184/93
f 105/192/94 92/173/94 76/144/94
f 111/202/95 81/154/95 92/173/95
f 106/195/96 93/174/96 112/203/96
f 97/180/97 91/172/97 101/186/97
f 85/161/98 30/63/98 7/18/98
f 103/189/99 84/160/99 75/141/99
f 75/141/100 90/171/100 85/161/100
f 11/26/101 99/184/101 42/80/101
f 86/164/102 89/170/102 102/187/102
f 84/160/103 87/167/103 90/171/103
f 52/95/77 85/162/77 7/18/77
f 96/178/104 94/175/104 78/148/104
f 112/203/105 77/146/105 104/191/105
f 95/177/106 91/172/106 68/127/106
f 107/196/107 98/182/107 113/204/107
f 106/194/108 98/182/108 79/150/108
f 76/144/109 101/186/109 95/177/109
f 93/174/110 96/178/110 77/146/110
f 42/80/111 86/165/111 20/41/111
f 92/173/112 97/180/112 101/186/112
f 99/184/113 78/147/113 86/165/113
f 79/151/114 100/185/114 93/174/114
f 80/152/115 113/204/115 106/194/115
f 102/188/116 8/19/116 51/94/116
f 81/155/117 113/204/117 97/181/117
f 91/172/118 104/191/118 68/127/118
f 88/168/77 52/95/77 16/34/77
f 64/113/119 108/198/119 103/189/119
f 80/153/120 112/203/120 91/172/120
f 94/175/121 107/197/121 111/202/121
f 78/148/122 111/202/122 105/192/122
f 78/149/123 109/200/123 86/163/123
f 88/168/77 103/190/77 110/201/77
f 83/159/124 104/191/124 108/198/124
f 35/72/3 1/1/3 13/28/3
f 58/105/125 31/64/125 23/49/125
f 13/29/126 1/2/126 29/61/126
f 60/108/15 32/66/15 21/43/15
f 48/90/127 41/79/127 28/59/127
f 37/75/128 30/63/128 11/25/128
f 18/37/27 9/21/27 43/81/27
f 2/7/129 22/47/129 36/74/129
f 36/73/130 22/46/130 55/100/130
f 44/84/131 23/48/131 34/70/131
f 55/99/132 22/47/132 39/77/132
f 61/109/133 39/77/133 27/57/133
f 40/78/134 25/54/134 56/102/134
f 38/76/135 26/56/135 45/86/135
f 32/65/136 7/18/136 30/63/136
f 53/96/137 21/44/137 31/64/137
f 21/44/138 32/65/138 37/75/138
f 47/89/139 34/70/139 11/26/139
f 33/68/140 20/42/140 50/92/140
f 50/92/141 19/39/141 36/74/141
f 36/74/142 59/106/142 33/68/142
f 31/64/143 37/75/143 34/71/143
f 52/95/15 7/18/15 32/66/15
f 44/83/144 24/51/144 41/79/144
f 23/49/145 40/78/145 62/110/145
f 43/82/146 9/22/146 38/76/146
f 46/87/147 28/60/147 57/103/147
f 56/101/148 25/53/148 46/87/148
f 22/47/149 43/82/149 49/91/149
f 44/83/150 48/90/150 40/78/150
f 33/69/151 47/89/151 42/80/151
f 39/77/152 49/91/152 45/86/152
f 24/50/153 44/84/153 47/89/153
f 48/90/18 46/88/18 25/54/18
f 26/55/154 56/101/154 63/111/154
f 50/93/155 51/94/155 8/19/155
f 63/111/156 57/103/156 27/58/156
f 54/98/157 62/110/157 38/76/157
f 52/95/15 60/108/15 35/72/15
f 1/3/158 53/96/158 58/105/158
f 62/110/159 56/102/159 26/56/159
f 41/79/160 61/109/160 57/104/160
f 24/51/161 55/99/161 61/109/161
f 59/107/162 55/100/162 24/52/162
f 35/72/15 60/108/15 53/97/15
f 29/62/163 58/105/163 54/98/163
f 70/130/65 64/114/65 88/168/65
f 108/198/164 104/191/164 77/146/164
f 83/158/165 64/112/165 70/131/165
f 110/201/77 103/190/77 75/140/77
f 100/185/166 98/183/166 82/157/166
f 90/171/167 87/167/167 11/25/167
f 73/137/89 76/142/89 95/176/89
f 65/118/168 74/138/168 89/170/168
f 105/193/169 76/143/169 89/169/169
f 87/166/170 77/145/170 96/179/170
f 105/192/171 111/202/171 92/173/171
f 111/202/172 107/197/172 81/154/172
f 106/195/173 79/151/173 93/174/173
f 97/180/174 80/153/174 91/172/174
f 85/161/175 90/171/175 30/63/175
f 103/189/176 108/198/176 84/160/176
f 75/141/177 84/160/177 90/171/177
f 11/26/178 87/166/178 99/184/178
f 102/187/179 20/42/179 86/164/179
f 86/164/180 109/199/180 89/170/180
f 89/170/181 74/138/181 102/187/181
f 84/160/182 77/146/182 87/167/182
f 52/95/77 110/201/77 85/162/77
f 96/178/183 100/185/183 94/175/183
f 112/203/184 93/174/184 77/146/184
f 95/177/185 101/186/185 91/172/185
f 107/196/147 82/156/147 98/182/147
f 106/194/186 113/204/186 98/182/186
f 76/144/187 92/173/187 101/186/187
f 93/174/188 100/185/188 96/178/188
f 42/80/189 99/184/189 86/165/189
f 92/173/190 81/154/190 97/180/190
f 99/184/191 96/179/191 78/147/191
f 79/151/166 98/183/166 100/185/166
f 80/152/192 97/181/192 113/204/192
f 102/188/193 74/139/193 8/19/193
f 81/155/194 107/196/194 113/204/194
f 91/172/195 112/203/195 104/191/195
f 88/168/77 110/201/77 52/95/77
f 64/113/196 83/159/196 108/198/196
f 80/153/197 106/195/197 112/203/197
f 94/175/198 82/157/198 107/197/198
f 78/148/199 94/175/199 111/202/199
f 78/149/200 105/193/200 109/200/200
f 88/168/77 64/114/77 103/190/77
f 83/159/201 68/127/201 104/191/201
